<svg width="55" height="32" viewBox="0 0 55 32" fill="none" xmlns="http://www.w3.org/2000/svg">
<mask id="mask0_238_26341" style="mask-type:luminance" maskUnits="userSpaceOnUse" x="0" y="0" width="55" height="32">
<path d="M54.8611 0H0V32H54.8611V0Z" fill="white"/>
</mask>
<g mask="url(#mask0_238_26341)">
<path d="M54.8611 0H0V32H54.8611V0Z" fill="white"/>
</g>
<mask id="mask1_238_26341" style="mask-type:luminance" maskUnits="userSpaceOnUse" x="0" y="0" width="55" height="32">
<path d="M54.8611 0H0V32H54.8611V0Z" fill="white"/>
</mask>
<g mask="url(#mask1_238_26341)">
<path d="M36.732 11.5711L54.8594 1.42372V0H53.6106L32.9414 11.5711H36.732Z" fill="#BD0034"/>
</g>
<mask id="mask2_238_26341" style="mask-type:luminance" maskUnits="userSpaceOnUse" x="0" y="0" width="55" height="32">
<path d="M54.8611 0H0V32H54.8611V0Z" fill="white"/>
</mask>
<g mask="url(#mask2_238_26341)">
<path d="M35.8776 21.0729L54.8599 31.6959V29.5726L39.6698 21.0729H35.8776Z" fill="#BD0034"/>
</g>
<mask id="mask3_238_26341" style="mask-type:luminance" maskUnits="userSpaceOnUse" x="0" y="0" width="55" height="32">
<path d="M54.8611 0H0V32H54.8611V0Z" fill="white"/>
</mask>
<g mask="url(#mask3_238_26341)">
<path d="M0 2.43711L16.2378 11.5711H20.0333L0 0.312134V2.43711Z" fill="#BD0034"/>
</g>
<mask id="mask4_238_26341" style="mask-type:luminance" maskUnits="userSpaceOnUse" x="0" y="0" width="55" height="32">
<path d="M54.8611 0H0V32H54.8611V0Z" fill="white"/>
</mask>
<g mask="url(#mask4_238_26341)">
<path d="M19.1719 21.0729L0 31.8153V32.0016H3.46364L22.9674 21.0729H19.1719Z" fill="#BD0034"/>
</g>
<mask id="mask5_238_26341" style="mask-type:luminance" maskUnits="userSpaceOnUse" x="0" y="0" width="55" height="32">
<path d="M54.8611 0H0V32H54.8611V0Z" fill="white"/>
</mask>
<g mask="url(#mask5_238_26341)">
<path d="M51.1049 0H31.8971V10.7571L51.1049 0Z" fill="#1A237B"/>
</g>
<mask id="mask6_238_26341" style="mask-type:luminance" maskUnits="userSpaceOnUse" x="0" y="0" width="55" height="32">
<path d="M54.8611 0H0V32H54.8611V0Z" fill="white"/>
</mask>
<g mask="url(#mask6_238_26341)">
<path d="M23.4168 0H4.2858L23.4168 10.7571V0Z" fill="#1A237B"/>
</g>
<mask id="mask7_238_26341" style="mask-type:luminance" maskUnits="userSpaceOnUse" x="0" y="0" width="55" height="32">
<path d="M54.8611 0H0V32H54.8611V0Z" fill="white"/>
</mask>
<g mask="url(#mask7_238_26341)">
<path d="M54.8593 11.5711V4.22864L41.8301 11.5711H54.8593Z" fill="#1A237B"/>
</g>
<mask id="mask8_238_26341" style="mask-type:luminance" maskUnits="userSpaceOnUse" x="0" y="0" width="55" height="32">
<path d="M54.8611 0H0V32H54.8611V0Z" fill="white"/>
</mask>
<g mask="url(#mask8_238_26341)">
<path d="M54.8593 28.3353V21.0729H41.8301L54.8593 28.3353Z" fill="#1A237B"/>
</g>
<mask id="mask9_238_26341" style="mask-type:luminance" maskUnits="userSpaceOnUse" x="0" y="0" width="55" height="32">
<path d="M54.8611 0H0V32H54.8611V0Z" fill="white"/>
</mask>
<g mask="url(#mask9_238_26341)">
<path d="M5.37109 32.0017H23.4167V21.8885L5.37109 32.0017Z" fill="#1A237B"/>
</g>
<mask id="mask10_238_26341" style="mask-type:luminance" maskUnits="userSpaceOnUse" x="0" y="0" width="55" height="32">
<path d="M54.8611 0H0V32H54.8611V0Z" fill="white"/>
</mask>
<g mask="url(#mask10_238_26341)">
<path d="M31.8971 32.0017H50.0016L31.8971 21.8885V32.0017Z" fill="#1A237B"/>
</g>
<mask id="mask11_238_26341" style="mask-type:luminance" maskUnits="userSpaceOnUse" x="0" y="0" width="55" height="32">
<path d="M54.8611 0H0V32H54.8611V0Z" fill="white"/>
</mask>
<g mask="url(#mask11_238_26341)">
<path d="M0 21.0729V28.6638L13.4836 21.0729H0Z" fill="#1A237B"/>
</g>
<mask id="mask12_238_26341" style="mask-type:luminance" maskUnits="userSpaceOnUse" x="0" y="0" width="55" height="32">
<path d="M54.8611 0H0V32H54.8611V0Z" fill="white"/>
</mask>
<g mask="url(#mask12_238_26341)">
<path d="M0 11.571H13.4836L0 3.96863V11.571Z" fill="#1A237B"/>
</g>
<mask id="mask13_238_26341" style="mask-type:luminance" maskUnits="userSpaceOnUse" x="0" y="0" width="55" height="32">
<path d="M54.8611 0H0V32H54.8611V0Z" fill="white"/>
</mask>
<g mask="url(#mask13_238_26341)">
<path d="M25.1135 0V13.4721H0V19.1768H25.1135V32.0016H30.2003V19.1768H54.8595V13.4721H30.2003V0H25.1135Z" fill="#BD0034"/>
</g>
</svg>
