<svg width="42" height="24" viewBox="0 0 42 24" fill="none" xmlns="http://www.w3.org/2000/svg">
<mask id="mask0_238_26282" style="mask-type:luminance" maskUnits="userSpaceOnUse" x="0" y="0" width="42" height="24">
<path d="M41.1458 0H0V24H41.1458V0Z" fill="white"/>
</mask>
<g mask="url(#mask0_238_26282)">
<path d="M41.1458 0H0V24H41.1458V0Z" fill="white"/>
</g>
<mask id="mask1_238_26282" style="mask-type:luminance" maskUnits="userSpaceOnUse" x="0" y="0" width="42" height="24">
<path d="M41.1458 0H0V24H41.1458V0Z" fill="white"/>
</mask>
<g mask="url(#mask1_238_26282)">
<path d="M27.5489 8.67832L41.1444 1.06779V0H40.2078L24.7059 8.67832H27.5489Z" fill="#BD0034"/>
</g>
<mask id="mask2_238_26282" style="mask-type:luminance" maskUnits="userSpaceOnUse" x="0" y="0" width="42" height="24">
<path d="M41.1458 0H0V24H41.1458V0Z" fill="white"/>
</mask>
<g mask="url(#mask2_238_26282)">
<path d="M26.9082 15.8047L41.1449 23.772V22.1795L29.7523 15.8047H26.9082Z" fill="#BD0034"/>
</g>
<mask id="mask3_238_26282" style="mask-type:luminance" maskUnits="userSpaceOnUse" x="0" y="0" width="42" height="24">
<path d="M41.1458 0H0V24H41.1458V0Z" fill="white"/>
</mask>
<g mask="url(#mask3_238_26282)">
<path d="M0 1.82786L12.1784 8.67833H15.025L0 0.234131V1.82786Z" fill="#BD0034"/>
</g>
<mask id="mask4_238_26282" style="mask-type:luminance" maskUnits="userSpaceOnUse" x="0" y="0" width="42" height="24">
<path d="M41.1458 0H0V24H41.1458V0Z" fill="white"/>
</mask>
<g mask="url(#mask4_238_26282)">
<path d="M14.3789 15.8047L0 23.8615V24.0013H2.59773L17.2255 15.8047H14.3789Z" fill="#BD0034"/>
</g>
<mask id="mask5_238_26282" style="mask-type:luminance" maskUnits="userSpaceOnUse" x="0" y="0" width="42" height="24">
<path d="M41.1458 0H0V24H41.1458V0Z" fill="white"/>
</mask>
<g mask="url(#mask5_238_26282)">
<path d="M38.3288 0H23.923V8.06783L38.3288 0Z" fill="#1A237B"/>
</g>
<mask id="mask6_238_26282" style="mask-type:luminance" maskUnits="userSpaceOnUse" x="0" y="0" width="42" height="24">
<path d="M41.1458 0H0V24H41.1458V0Z" fill="white"/>
</mask>
<g mask="url(#mask6_238_26282)">
<path d="M17.5627 0H3.21448L17.5627 8.06783V0Z" fill="#1A237B"/>
</g>
<mask id="mask7_238_26282" style="mask-type:luminance" maskUnits="userSpaceOnUse" x="0" y="0" width="42" height="24">
<path d="M41.1458 0H0V24H41.1458V0Z" fill="white"/>
</mask>
<g mask="url(#mask7_238_26282)">
<path d="M41.1444 8.67826V3.17139L31.3725 8.67826H41.1444Z" fill="#1A237B"/>
</g>
<mask id="mask8_238_26282" style="mask-type:luminance" maskUnits="userSpaceOnUse" x="0" y="0" width="42" height="24">
<path d="M41.1458 0H0V24H41.1458V0Z" fill="white"/>
</mask>
<g mask="url(#mask8_238_26282)">
<path d="M41.1444 21.2515V15.8047H31.3725L41.1444 21.2515Z" fill="#1A237B"/>
</g>
<mask id="mask9_238_26282" style="mask-type:luminance" maskUnits="userSpaceOnUse" x="0" y="0" width="42" height="24">
<path d="M41.1458 0H0V24H41.1458V0Z" fill="white"/>
</mask>
<g mask="url(#mask9_238_26282)">
<path d="M4.02832 24.0012H17.5625V16.4164L4.02832 24.0012Z" fill="#1A237B"/>
</g>
<mask id="mask10_238_26282" style="mask-type:luminance" maskUnits="userSpaceOnUse" x="0" y="0" width="42" height="24">
<path d="M41.1458 0H0V24H41.1458V0Z" fill="white"/>
</mask>
<g mask="url(#mask10_238_26282)">
<path d="M23.923 24.0012H37.5013L23.923 16.4164V24.0012Z" fill="#1A237B"/>
</g>
<mask id="mask11_238_26282" style="mask-type:luminance" maskUnits="userSpaceOnUse" x="0" y="0" width="42" height="24">
<path d="M41.1458 0H0V24H41.1458V0Z" fill="white"/>
</mask>
<g mask="url(#mask11_238_26282)">
<path d="M0 15.8047V21.4979L10.1127 15.8047H0Z" fill="#1A237B"/>
</g>
<mask id="mask12_238_26282" style="mask-type:luminance" maskUnits="userSpaceOnUse" x="0" y="0" width="42" height="24">
<path d="M41.1458 0H0V24H41.1458V0Z" fill="white"/>
</mask>
<g mask="url(#mask12_238_26282)">
<path d="M0 8.67836H10.1127L0 2.97656V8.67836Z" fill="#1A237B"/>
</g>
<mask id="mask13_238_26282" style="mask-type:luminance" maskUnits="userSpaceOnUse" x="0" y="0" width="42" height="24">
<path d="M41.1458 0H0V24H41.1458V0Z" fill="white"/>
</mask>
<g mask="url(#mask13_238_26282)">
<path d="M18.8351 0V10.1041H0V14.3826H18.8351V24.0012H22.6502V14.3826H41.1446V10.1041H22.6502V0H18.8351Z" fill="#BD0034"/>
</g>
</svg>
