<svg width="55" height="32" viewBox="0 0 55 32" fill="none" xmlns="http://www.w3.org/2000/svg">
<mask id="mask0_238_25764" style="mask-type:luminance" maskUnits="userSpaceOnUse" x="0" y="0" width="55" height="32">
<path d="M54.8599 0H0V32H54.8599V0Z" fill="white"/>
</mask>
<g mask="url(#mask0_238_25764)">
<path d="M54.8599 29.5385H0V32H54.8599V29.5385Z" fill="#CB001C"/>
</g>
<mask id="mask1_238_25764" style="mask-type:luminance" maskUnits="userSpaceOnUse" x="0" y="0" width="55" height="32">
<path d="M54.8599 0H0V32H54.8599V0Z" fill="white"/>
</mask>
<g mask="url(#mask1_238_25764)">
<path d="M54.8599 27.0786H0V29.5401H54.8599V27.0786Z" fill="white"/>
</g>
<mask id="mask2_238_25764" style="mask-type:luminance" maskUnits="userSpaceOnUse" x="0" y="0" width="55" height="32">
<path d="M54.8599 0H0V32H54.8599V0Z" fill="white"/>
</mask>
<g mask="url(#mask2_238_25764)">
<path d="M54.8599 24.6187H0V27.0786H54.8599V24.6187Z" fill="#CB001C"/>
</g>
<mask id="mask3_238_25764" style="mask-type:luminance" maskUnits="userSpaceOnUse" x="0" y="0" width="55" height="32">
<path d="M54.8599 0H0V32H54.8599V0Z" fill="white"/>
</mask>
<g mask="url(#mask3_238_25764)">
<path d="M54.8599 22.1571H0V24.6186H54.8599V22.1571Z" fill="white"/>
</g>
<mask id="mask4_238_25764" style="mask-type:luminance" maskUnits="userSpaceOnUse" x="0" y="0" width="55" height="32">
<path d="M54.8599 0H0V32H54.8599V0Z" fill="white"/>
</mask>
<g mask="url(#mask4_238_25764)">
<path d="M54.8599 19.694H0V22.1572H54.8599V19.694Z" fill="#CB001C"/>
</g>
<mask id="mask5_238_25764" style="mask-type:luminance" maskUnits="userSpaceOnUse" x="0" y="0" width="55" height="32">
<path d="M54.8599 0H0V32H54.8599V0Z" fill="white"/>
</mask>
<g mask="url(#mask5_238_25764)">
<path d="M54.8599 17.234H0V19.6939H54.8599V17.234Z" fill="white"/>
</g>
<mask id="mask6_238_25764" style="mask-type:luminance" maskUnits="userSpaceOnUse" x="0" y="0" width="55" height="32">
<path d="M54.8599 0H0V32H54.8599V0Z" fill="white"/>
</mask>
<g mask="url(#mask6_238_25764)">
<path d="M54.8599 14.7693H0V17.2341H54.8599V14.7693Z" fill="#CB001C"/>
</g>
<mask id="mask7_238_25764" style="mask-type:luminance" maskUnits="userSpaceOnUse" x="0" y="0" width="55" height="32">
<path d="M54.8599 0H0V32H54.8599V0Z" fill="white"/>
</mask>
<g mask="url(#mask7_238_25764)">
<path d="M54.8599 12.3093H0V14.7692H54.8599V12.3093Z" fill="white"/>
</g>
<mask id="mask8_238_25764" style="mask-type:luminance" maskUnits="userSpaceOnUse" x="0" y="0" width="55" height="32">
<path d="M54.8599 0H0V32H54.8599V0Z" fill="white"/>
</mask>
<g mask="url(#mask8_238_25764)">
<path d="M54.8599 9.84949H0V12.311H54.8599V9.84949Z" fill="#CB001C"/>
</g>
<mask id="mask9_238_25764" style="mask-type:luminance" maskUnits="userSpaceOnUse" x="0" y="0" width="55" height="32">
<path d="M54.8599 0H0V32H54.8599V0Z" fill="white"/>
</mask>
<g mask="url(#mask9_238_25764)">
<path d="M54.8599 7.38623H0V9.84941H54.8599V7.38623Z" fill="white"/>
</g>
<mask id="mask10_238_25764" style="mask-type:luminance" maskUnits="userSpaceOnUse" x="0" y="0" width="55" height="32">
<path d="M54.8599 0H0V32H54.8599V0Z" fill="white"/>
</mask>
<g mask="url(#mask10_238_25764)">
<path d="M54.8599 4.92468H0V7.38622H54.8599V4.92468Z" fill="#CB001C"/>
</g>
<mask id="mask11_238_25764" style="mask-type:luminance" maskUnits="userSpaceOnUse" x="0" y="0" width="55" height="32">
<path d="M54.8599 0H0V32H54.8599V0Z" fill="white"/>
</mask>
<g mask="url(#mask11_238_25764)">
<path d="M54.8599 2.46313H0V4.92469H54.8599V2.46313Z" fill="white"/>
</g>
<mask id="mask12_238_25764" style="mask-type:luminance" maskUnits="userSpaceOnUse" x="0" y="0" width="55" height="32">
<path d="M54.8599 0H0V32H54.8599V0Z" fill="white"/>
</mask>
<g mask="url(#mask12_238_25764)">
<path d="M54.8599 0H0V2.46316H54.8599V0Z" fill="#CB001C"/>
</g>
<mask id="mask13_238_25764" style="mask-type:luminance" maskUnits="userSpaceOnUse" x="0" y="0" width="55" height="32">
<path d="M54.8599 0H0V32H54.8599V0Z" fill="white"/>
</mask>
<g mask="url(#mask13_238_25764)">
<path d="M25.0534 0H0V17.234H25.0534V0Z" fill="#2A3560"/>
</g>
<mask id="mask14_238_25764" style="mask-type:luminance" maskUnits="userSpaceOnUse" x="0" y="0" width="55" height="32">
<path d="M54.8599 0H0V32H54.8599V0Z" fill="white"/>
</mask>
<g mask="url(#mask14_238_25764)">
<path d="M2.26394 1.89929L2.47803 2.5531H3.16449L2.60882 2.95519L2.81961 3.60571L2.26394 3.20362L1.70817 3.60571L1.92555 2.95519L1.36978 2.5531H2.04975L2.26394 1.89929Z" fill="white"/>
</g>
<mask id="mask15_238_25764" style="mask-type:luminance" maskUnits="userSpaceOnUse" x="0" y="0" width="55" height="32">
<path d="M54.8599 0H0V32H54.8599V0Z" fill="white"/>
</mask>
<g mask="url(#mask15_238_25764)">
<path d="M2.26394 4.77759L2.47803 5.42813H3.16449L2.60882 5.82857L2.81961 6.48236L2.26394 6.07865L1.70817 6.48236L1.92555 5.82857L1.36978 5.42813H2.04975L2.26394 4.77759Z" fill="white"/>
</g>
<mask id="mask16_238_25764" style="mask-type:luminance" maskUnits="userSpaceOnUse" x="0" y="0" width="55" height="32">
<path d="M54.8599 0H0V32H54.8599V0Z" fill="white"/>
</mask>
<g mask="url(#mask16_238_25764)">
<path d="M2.26394 7.6543L2.47803 8.30319H3.16449L2.60882 8.70526L2.81961 9.35907L2.26394 8.95533L1.70817 9.35907L1.92555 8.70526L1.36978 8.30319H2.04975L2.26394 7.6543Z" fill="white"/>
</g>
<mask id="mask17_238_25764" style="mask-type:luminance" maskUnits="userSpaceOnUse" x="0" y="0" width="55" height="32">
<path d="M54.8599 0H0V32H54.8599V0Z" fill="white"/>
</mask>
<g mask="url(#mask17_238_25764)">
<path d="M2.26394 10.5294L2.47803 11.1816H3.16449L2.60882 11.5836L2.81961 12.2342L2.26394 11.8337L1.70817 12.2342L1.92555 11.5836L1.36978 11.1816H2.04975L2.26394 10.5294Z" fill="white"/>
</g>
<mask id="mask18_238_25764" style="mask-type:luminance" maskUnits="userSpaceOnUse" x="0" y="0" width="55" height="32">
<path d="M54.8599 0H0V32H54.8599V0Z" fill="white"/>
</mask>
<g mask="url(#mask18_238_25764)">
<path d="M2.26394 13.4044L2.47803 14.0599H3.16449L2.60882 14.4587L2.81961 15.1092L2.26394 14.7071L1.70817 15.1092L1.92555 14.4587L1.36978 14.0599H2.04975L2.26394 13.4044Z" fill="white"/>
</g>
<mask id="mask19_238_25764" style="mask-type:luminance" maskUnits="userSpaceOnUse" x="0" y="0" width="55" height="32">
<path d="M54.8599 0H0V32H54.8599V0Z" fill="white"/>
</mask>
<g mask="url(#mask19_238_25764)">
<path d="M4.26909 3.41443L4.4734 4.06824H5.16145L4.61067 4.47195L4.81658 5.12085L4.26909 4.7204L3.71661 5.12085L3.92252 4.47195L3.37173 4.06824H4.05819L4.26909 3.41443Z" fill="white"/>
</g>
<mask id="mask20_238_25764" style="mask-type:luminance" maskUnits="userSpaceOnUse" x="0" y="0" width="55" height="32">
<path d="M54.8599 0H0V32H54.8599V0Z" fill="white"/>
</mask>
<g mask="url(#mask20_238_25764)">
<path d="M4.26909 6.29272L4.4734 6.94162H5.16145L4.61067 7.34533L4.81658 7.99587L4.26909 7.59705L3.71661 7.99587L3.92252 7.34533L3.37173 6.94162H4.05819L4.26909 6.29272Z" fill="white"/>
</g>
<mask id="mask21_238_25764" style="mask-type:luminance" maskUnits="userSpaceOnUse" x="0" y="0" width="55" height="32">
<path d="M54.8599 0H0V32H54.8599V0Z" fill="white"/>
</mask>
<g mask="url(#mask21_238_25764)">
<path d="M4.26909 9.16943L4.4734 9.81995H5.16145L4.61067 10.222L4.81658 10.8742L4.26909 10.4705L3.71661 10.8742L3.92252 10.222L3.37173 9.81995H4.05819L4.26909 9.16943Z" fill="white"/>
</g>
<mask id="mask22_238_25764" style="mask-type:luminance" maskUnits="userSpaceOnUse" x="0" y="0" width="55" height="32">
<path d="M54.8599 0H0V32H54.8599V0Z" fill="white"/>
</mask>
<g mask="url(#mask22_238_25764)">
<path d="M4.26909 12.0461L4.4734 12.6967H5.16145L4.61067 13.0987L4.81658 13.7476L4.26909 13.3439L3.71661 13.7476L3.92252 13.0987L3.37173 12.6967H4.05819L4.26909 12.0461Z" fill="white"/>
</g>
<mask id="mask23_238_25764" style="mask-type:luminance" maskUnits="userSpaceOnUse" x="0" y="0" width="55" height="32">
<path d="M54.8599 0H0V32H54.8599V0Z" fill="white"/>
</mask>
<g mask="url(#mask23_238_25764)">
<path d="M6.2925 1.89929L6.50659 2.5531H7.19145L6.63737 2.95519L6.84986 3.60571L6.2925 3.20362L5.74331 3.60571L5.95421 2.95519L5.39844 2.5531H6.0817L6.2925 1.89929Z" fill="white"/>
</g>
<mask id="mask24_238_25764" style="mask-type:luminance" maskUnits="userSpaceOnUse" x="0" y="0" width="55" height="32">
<path d="M54.8599 0H0V32H54.8599V0Z" fill="white"/>
</mask>
<g mask="url(#mask24_238_25764)">
<path d="M6.2925 4.77759L6.50659 5.42813H7.19145L6.63737 5.82857L6.84986 6.48236L6.2925 6.07865L5.74331 6.48236L5.95421 5.82857L5.39844 5.42813H6.0817L6.2925 4.77759Z" fill="white"/>
</g>
<mask id="mask25_238_25764" style="mask-type:luminance" maskUnits="userSpaceOnUse" x="0" y="0" width="55" height="32">
<path d="M54.8599 0H0V32H54.8599V0Z" fill="white"/>
</mask>
<g mask="url(#mask25_238_25764)">
<path d="M6.2925 7.6543L6.50659 8.30319H7.19145L6.63737 8.70526L6.84986 9.35907L6.2925 8.95533L5.74331 9.35907L5.95421 8.70526L5.39844 8.30319H6.0817L6.2925 7.6543Z" fill="white"/>
</g>
<mask id="mask26_238_25764" style="mask-type:luminance" maskUnits="userSpaceOnUse" x="0" y="0" width="55" height="32">
<path d="M54.8599 0H0V32H54.8599V0Z" fill="white"/>
</mask>
<g mask="url(#mask26_238_25764)">
<path d="M6.2925 10.5294L6.50659 11.1816H7.19145L6.63737 11.5836L6.84986 12.2342L6.2925 11.8337L5.74331 12.2342L5.95421 11.5836L5.39844 11.1816H6.0817L6.2925 10.5294Z" fill="white"/>
</g>
<mask id="mask27_238_25764" style="mask-type:luminance" maskUnits="userSpaceOnUse" x="0" y="0" width="55" height="32">
<path d="M54.8599 0H0V32H54.8599V0Z" fill="white"/>
</mask>
<g mask="url(#mask27_238_25764)">
<path d="M6.2925 13.4044L6.50659 14.0599H7.19145L6.63737 14.4587L6.84986 15.1092L6.2925 14.7071L5.74331 15.1092L5.95421 14.4587L5.39844 14.0599H6.0817L6.2925 13.4044Z" fill="white"/>
</g>
<mask id="mask28_238_25764" style="mask-type:luminance" maskUnits="userSpaceOnUse" x="0" y="0" width="55" height="32">
<path d="M54.8599 0H0V32H54.8599V0Z" fill="white"/>
</mask>
<g mask="url(#mask28_238_25764)">
<path d="M8.29643 3.41443L8.50723 4.06824H9.19698L8.63801 4.47195L8.8521 5.12085L8.29643 4.7204L7.74395 5.12085L7.95804 4.47195L7.39908 4.06824H8.08554L8.29643 3.41443Z" fill="white"/>
</g>
<mask id="mask29_238_25764" style="mask-type:luminance" maskUnits="userSpaceOnUse" x="0" y="0" width="55" height="32">
<path d="M54.8599 0H0V32H54.8599V0Z" fill="white"/>
</mask>
<g mask="url(#mask29_238_25764)">
<path d="M8.29643 6.29272L8.50723 6.94162H9.19698L8.63801 7.34533L8.8521 7.99587L8.29643 7.59705L7.74395 7.99587L7.95804 7.34533L7.39908 6.94162H8.08554L8.29643 6.29272Z" fill="white"/>
</g>
<mask id="mask30_238_25764" style="mask-type:luminance" maskUnits="userSpaceOnUse" x="0" y="0" width="55" height="32">
<path d="M54.8599 0H0V32H54.8599V0Z" fill="white"/>
</mask>
<g mask="url(#mask30_238_25764)">
<path d="M8.29643 9.16943L8.50723 9.81995H9.19698L8.63801 10.222L8.8521 10.8742L8.29643 10.4705L7.74395 10.8742L7.95804 10.222L7.39908 9.81995H8.08554L8.29643 9.16943Z" fill="white"/>
</g>
<mask id="mask31_238_25764" style="mask-type:luminance" maskUnits="userSpaceOnUse" x="0" y="0" width="55" height="32">
<path d="M54.8599 0H0V32H54.8599V0Z" fill="white"/>
</mask>
<g mask="url(#mask31_238_25764)">
<path d="M8.29643 12.0461L8.50723 12.6967H9.19698L8.63801 13.0987L8.8521 13.7476L8.29643 13.3439L7.74395 13.7476L7.95804 13.0987L7.39908 12.6967H8.08554L8.29643 12.0461Z" fill="white"/>
</g>
<mask id="mask32_238_25764" style="mask-type:luminance" maskUnits="userSpaceOnUse" x="0" y="0" width="55" height="32">
<path d="M54.8599 0H0V32H54.8599V0Z" fill="white"/>
</mask>
<g mask="url(#mask32_238_25764)">
<path d="M10.3283 1.89929L10.5408 2.5531H11.2208L10.665 2.95519L10.8857 3.60571L10.3283 3.20362L9.77262 3.60571L9.98342 2.95519L9.43423 2.5531H10.1175L10.3283 1.89929Z" fill="white"/>
</g>
<mask id="mask33_238_25764" style="mask-type:luminance" maskUnits="userSpaceOnUse" x="0" y="0" width="55" height="32">
<path d="M54.8599 0H0V32H54.8599V0Z" fill="white"/>
</mask>
<g mask="url(#mask33_238_25764)">
<path d="M10.3283 4.77759L10.5408 5.42813H11.2208L10.665 5.82857L10.8857 6.48236L10.3283 6.07865L9.77262 6.48236L9.98342 5.82857L9.43423 5.42813H10.1175L10.3283 4.77759Z" fill="white"/>
</g>
<mask id="mask34_238_25764" style="mask-type:luminance" maskUnits="userSpaceOnUse" x="0" y="0" width="55" height="32">
<path d="M54.8599 0H0V32H54.8599V0Z" fill="white"/>
</mask>
<g mask="url(#mask34_238_25764)">
<path d="M10.3283 7.6543L10.5408 8.30319H11.2208L10.665 8.70526L10.8857 9.35907L10.3283 8.95533L9.77262 9.35907L9.98342 8.70526L9.43423 8.30319H10.1175L10.3283 7.6543Z" fill="white"/>
</g>
<mask id="mask35_238_25764" style="mask-type:luminance" maskUnits="userSpaceOnUse" x="0" y="0" width="55" height="32">
<path d="M54.8599 0H0V32H54.8599V0Z" fill="white"/>
</mask>
<g mask="url(#mask35_238_25764)">
<path d="M10.3283 10.5294L10.5408 11.1816H11.2208L10.665 11.5836L10.8857 12.2342L10.3283 11.8337L9.77262 12.2342L9.98342 11.5836L9.43423 11.1816H10.1175L10.3283 10.5294Z" fill="white"/>
</g>
<mask id="mask36_238_25764" style="mask-type:luminance" maskUnits="userSpaceOnUse" x="0" y="0" width="55" height="32">
<path d="M54.8599 0H0V32H54.8599V0Z" fill="white"/>
</mask>
<g mask="url(#mask36_238_25764)">
<path d="M10.3283 13.4044L10.5408 14.0599H11.2208L10.665 14.4587L10.8857 15.1092L10.3283 14.7071L9.77262 15.1092L9.98342 14.4587L9.43423 14.0599H10.1175L10.3283 13.4044Z" fill="white"/>
</g>
<mask id="mask37_238_25764" style="mask-type:luminance" maskUnits="userSpaceOnUse" x="0" y="0" width="55" height="32">
<path d="M54.8599 0H0V32H54.8599V0Z" fill="white"/>
</mask>
<g mask="url(#mask37_238_25764)">
<path d="M12.3323 3.41443L12.5432 4.06824H13.2263L12.6738 4.47195L12.8814 5.12085L12.3323 4.7204L11.7798 5.12085L11.9874 4.47195L11.4349 4.06824H12.1182L12.3323 3.41443Z" fill="white"/>
</g>
<mask id="mask38_238_25764" style="mask-type:luminance" maskUnits="userSpaceOnUse" x="0" y="0" width="55" height="32">
<path d="M54.8599 0H0V32H54.8599V0Z" fill="white"/>
</mask>
<g mask="url(#mask38_238_25764)">
<path d="M12.3323 6.29272L12.5432 6.94162H13.2263L12.6738 7.34533L12.8814 7.99587L12.3323 7.59705L11.7798 7.99587L11.9874 7.34533L11.4349 6.94162H12.1182L12.3323 6.29272Z" fill="white"/>
</g>
<mask id="mask39_238_25764" style="mask-type:luminance" maskUnits="userSpaceOnUse" x="0" y="0" width="55" height="32">
<path d="M54.8599 0H0V32H54.8599V0Z" fill="white"/>
</mask>
<g mask="url(#mask39_238_25764)">
<path d="M12.3323 9.16943L12.5432 9.81995H13.2263L12.6738 10.222L12.8814 10.8742L12.3323 10.4705L11.7798 10.8742L11.9874 10.222L11.4349 9.81995H12.1182L12.3323 9.16943Z" fill="white"/>
</g>
<mask id="mask40_238_25764" style="mask-type:luminance" maskUnits="userSpaceOnUse" x="0" y="0" width="55" height="32">
<path d="M54.8599 0H0V32H54.8599V0Z" fill="white"/>
</mask>
<g mask="url(#mask40_238_25764)">
<path d="M12.3323 12.0461L12.5432 12.6967H13.2263L12.6738 13.0987L12.8814 13.7476L12.3323 13.3439L11.7798 13.7476L11.9874 13.0987L11.4349 12.6967H12.1182L12.3323 12.0461Z" fill="white"/>
</g>
<mask id="mask41_238_25764" style="mask-type:luminance" maskUnits="userSpaceOnUse" x="0" y="0" width="55" height="32">
<path d="M54.8599 0H0V32H54.8599V0Z" fill="white"/>
</mask>
<g mask="url(#mask41_238_25764)">
<path d="M14.3553 1.89929L14.5694 2.5531H15.2526L14.7001 2.95519L14.9143 3.60571L14.3553 3.20362L13.8061 3.60571L14.0137 2.95519L13.4629 2.5531H14.1445L14.3553 1.89929Z" fill="white"/>
</g>
<mask id="mask42_238_25764" style="mask-type:luminance" maskUnits="userSpaceOnUse" x="0" y="0" width="55" height="32">
<path d="M54.8599 0H0V32H54.8599V0Z" fill="white"/>
</mask>
<g mask="url(#mask42_238_25764)">
<path d="M14.3553 4.77759L14.5694 5.42813H15.2526L14.7001 5.82857L14.9143 6.48236L14.3553 6.07865L13.8061 6.48236L14.0137 5.82857L13.4629 5.42813H14.1445L14.3553 4.77759Z" fill="white"/>
</g>
<mask id="mask43_238_25764" style="mask-type:luminance" maskUnits="userSpaceOnUse" x="0" y="0" width="55" height="32">
<path d="M54.8599 0H0V32H54.8599V0Z" fill="white"/>
</mask>
<g mask="url(#mask43_238_25764)">
<path d="M14.3553 7.6543L14.5694 8.30319H15.2526L14.7001 8.70526L14.9143 9.35907L14.3553 8.95533L13.8061 9.35907L14.0137 8.70526L13.4629 8.30319H14.1445L14.3553 7.6543Z" fill="white"/>
</g>
<mask id="mask44_238_25764" style="mask-type:luminance" maskUnits="userSpaceOnUse" x="0" y="0" width="55" height="32">
<path d="M54.8599 0H0V32H54.8599V0Z" fill="white"/>
</mask>
<g mask="url(#mask44_238_25764)">
<path d="M14.3553 10.5294L14.5694 11.1816H15.2526L14.7001 11.5836L14.9143 12.2342L14.3553 11.8337L13.8061 12.2342L14.0137 11.5836L13.4629 11.1816H14.1445L14.3553 10.5294Z" fill="white"/>
</g>
<mask id="mask45_238_25764" style="mask-type:luminance" maskUnits="userSpaceOnUse" x="0" y="0" width="55" height="32">
<path d="M54.8599 0H0V32H54.8599V0Z" fill="white"/>
</mask>
<g mask="url(#mask45_238_25764)">
<path d="M14.3553 13.4044L14.5694 14.0599H15.2526L14.7001 14.4587L14.9143 15.1092L14.3553 14.7071L13.8061 15.1092L14.0137 14.4587L13.4629 14.0599H14.1445L14.3553 13.4044Z" fill="white"/>
</g>
<mask id="mask46_238_25764" style="mask-type:luminance" maskUnits="userSpaceOnUse" x="0" y="0" width="55" height="32">
<path d="M54.8599 0H0V32H54.8599V0Z" fill="white"/>
</mask>
<g mask="url(#mask46_238_25764)">
<path d="M16.361 3.41443L16.5718 4.06824H17.2615L16.7058 4.47195L16.9166 5.12085L16.361 4.7204L15.8085 5.12085L16.0226 4.47195L15.4668 4.06824H16.1534L16.361 3.41443Z" fill="white"/>
</g>
<mask id="mask47_238_25764" style="mask-type:luminance" maskUnits="userSpaceOnUse" x="0" y="0" width="55" height="32">
<path d="M54.8599 0H0V32H54.8599V0Z" fill="white"/>
</mask>
<g mask="url(#mask47_238_25764)">
<path d="M16.361 6.29272L16.5718 6.94162H17.2615L16.7058 7.34533L16.9166 7.99587L16.361 7.59705L15.8085 7.99587L16.0226 7.34533L15.4668 6.94162H16.1534L16.361 6.29272Z" fill="white"/>
</g>
<mask id="mask48_238_25764" style="mask-type:luminance" maskUnits="userSpaceOnUse" x="0" y="0" width="55" height="32">
<path d="M54.8599 0H0V32H54.8599V0Z" fill="white"/>
</mask>
<g mask="url(#mask48_238_25764)">
<path d="M16.361 9.16943L16.5718 9.81995H17.2615L16.7058 10.222L16.9166 10.8742L16.361 10.4705L15.8085 10.8742L16.0226 10.222L15.4668 9.81995H16.1534L16.361 9.16943Z" fill="white"/>
</g>
<mask id="mask49_238_25764" style="mask-type:luminance" maskUnits="userSpaceOnUse" x="0" y="0" width="55" height="32">
<path d="M54.8599 0H0V32H54.8599V0Z" fill="white"/>
</mask>
<g mask="url(#mask49_238_25764)">
<path d="M16.361 12.0461L16.5718 12.6967H17.2615L16.7058 13.0987L16.9166 13.7476L16.361 13.3439L15.8085 13.7476L16.0226 13.0987L15.4668 12.6967H16.1534L16.361 12.0461Z" fill="white"/>
</g>
<mask id="mask50_238_25764" style="mask-type:luminance" maskUnits="userSpaceOnUse" x="0" y="0" width="55" height="32">
<path d="M54.8599 0H0V32H54.8599V0Z" fill="white"/>
</mask>
<g mask="url(#mask50_238_25764)">
<path d="M18.3915 1.89929L18.6057 2.5531H19.2888L18.7363 2.95519L18.9439 3.60571L18.3915 3.20362L17.8423 3.60571L18.0499 2.95519L17.4974 2.5531H18.1807L18.3915 1.89929Z" fill="white"/>
</g>
<mask id="mask51_238_25764" style="mask-type:luminance" maskUnits="userSpaceOnUse" x="0" y="0" width="55" height="32">
<path d="M54.8599 0H0V32H54.8599V0Z" fill="white"/>
</mask>
<g mask="url(#mask51_238_25764)">
<path d="M18.3915 4.77759L18.6057 5.42813H19.2888L18.7363 5.82857L18.9439 6.48236L18.3915 6.07865L17.8423 6.48236L18.0499 5.82857L17.4974 5.42813H18.1807L18.3915 4.77759Z" fill="white"/>
</g>
<mask id="mask52_238_25764" style="mask-type:luminance" maskUnits="userSpaceOnUse" x="0" y="0" width="55" height="32">
<path d="M54.8599 0H0V32H54.8599V0Z" fill="white"/>
</mask>
<g mask="url(#mask52_238_25764)">
<path d="M18.3915 7.6543L18.6057 8.30319H19.2888L18.7363 8.70526L18.9439 9.35907L18.3915 8.95533L17.8423 9.35907L18.0499 8.70526L17.4974 8.30319H18.1807L18.3915 7.6543Z" fill="white"/>
</g>
<mask id="mask53_238_25764" style="mask-type:luminance" maskUnits="userSpaceOnUse" x="0" y="0" width="55" height="32">
<path d="M54.8599 0H0V32H54.8599V0Z" fill="white"/>
</mask>
<g mask="url(#mask53_238_25764)">
<path d="M18.3915 10.5294L18.6057 11.1816H19.2888L18.7363 11.5836L18.9439 12.2342L18.3915 11.8337L17.8423 12.2342L18.0499 11.5836L17.4974 11.1816H18.1807L18.3915 10.5294Z" fill="white"/>
</g>
<mask id="mask54_238_25764" style="mask-type:luminance" maskUnits="userSpaceOnUse" x="0" y="0" width="55" height="32">
<path d="M54.8599 0H0V32H54.8599V0Z" fill="white"/>
</mask>
<g mask="url(#mask54_238_25764)">
<path d="M18.3915 13.4044L18.6057 14.0599H19.2888L18.7363 14.4587L18.9439 15.1092L18.3915 14.7071L17.8423 15.1092L18.0499 14.4587L17.4974 14.0599H18.1807L18.3915 13.4044Z" fill="white"/>
</g>
<mask id="mask55_238_25764" style="mask-type:luminance" maskUnits="userSpaceOnUse" x="0" y="0" width="55" height="32">
<path d="M54.8599 0H0V32H54.8599V0Z" fill="white"/>
</mask>
<g mask="url(#mask55_238_25764)">
<path d="M20.3973 3.41443L20.6048 4.06824H21.2897L20.7422 4.47195L20.9465 5.12085L20.3973 4.7204L19.8383 5.12085L20.0525 4.47195L19.5033 4.06824H20.1831L20.3973 3.41443Z" fill="white"/>
</g>
<mask id="mask56_238_25764" style="mask-type:luminance" maskUnits="userSpaceOnUse" x="0" y="0" width="55" height="32">
<path d="M54.8599 0H0V32H54.8599V0Z" fill="white"/>
</mask>
<g mask="url(#mask56_238_25764)">
<path d="M20.3973 6.29272L20.6048 6.94162H21.2897L20.7422 7.34533L20.9465 7.99587L20.3973 7.59705L19.8383 7.99587L20.0525 7.34533L19.5033 6.94162H20.1831L20.3973 6.29272Z" fill="white"/>
</g>
<mask id="mask57_238_25764" style="mask-type:luminance" maskUnits="userSpaceOnUse" x="0" y="0" width="55" height="32">
<path d="M54.8599 0H0V32H54.8599V0Z" fill="white"/>
</mask>
<g mask="url(#mask57_238_25764)">
<path d="M20.3973 9.16943L20.6048 9.81995H21.2897L20.7422 10.222L20.9465 10.8742L20.3973 10.4705L19.8383 10.8742L20.0525 10.222L19.5033 9.81995H20.1831L20.3973 9.16943Z" fill="white"/>
</g>
<mask id="mask58_238_25764" style="mask-type:luminance" maskUnits="userSpaceOnUse" x="0" y="0" width="55" height="32">
<path d="M54.8599 0H0V32H54.8599V0Z" fill="white"/>
</mask>
<g mask="url(#mask58_238_25764)">
<path d="M20.3973 12.0461L20.6048 12.6967H21.2897L20.7422 13.0987L20.9465 13.7476L20.3973 13.3439L19.8383 13.7476L20.0525 13.0987L19.5033 12.6967H20.1831L20.3973 12.0461Z" fill="white"/>
</g>
<mask id="mask59_238_25764" style="mask-type:luminance" maskUnits="userSpaceOnUse" x="0" y="0" width="55" height="32">
<path d="M54.8599 0H0V32H54.8599V0Z" fill="white"/>
</mask>
<g mask="url(#mask59_238_25764)">
<path d="M22.4201 1.89929L22.6375 2.5531H23.3174L22.765 2.95519L22.9791 3.60571L22.4201 3.20362L21.8709 3.60571L22.0785 2.95519L21.526 2.5531H22.2092L22.4201 1.89929Z" fill="white"/>
</g>
<mask id="mask60_238_25764" style="mask-type:luminance" maskUnits="userSpaceOnUse" x="0" y="0" width="55" height="32">
<path d="M54.8599 0H0V32H54.8599V0Z" fill="white"/>
</mask>
<g mask="url(#mask60_238_25764)">
<path d="M22.4201 4.77759L22.6375 5.42813H23.3174L22.765 5.82857L22.9791 6.48236L22.4201 6.07865L21.8709 6.48236L22.0785 5.82857L21.526 5.42813H22.2092L22.4201 4.77759Z" fill="white"/>
</g>
<mask id="mask61_238_25764" style="mask-type:luminance" maskUnits="userSpaceOnUse" x="0" y="0" width="55" height="32">
<path d="M54.8599 0H0V32H54.8599V0Z" fill="white"/>
</mask>
<g mask="url(#mask61_238_25764)">
<path d="M22.4201 7.6543L22.6375 8.30319H23.3174L22.765 8.70526L22.9791 9.35907L22.4201 8.95533L21.8709 9.35907L22.0785 8.70526L21.526 8.30319H22.2092L22.4201 7.6543Z" fill="white"/>
</g>
<mask id="mask62_238_25764" style="mask-type:luminance" maskUnits="userSpaceOnUse" x="0" y="0" width="55" height="32">
<path d="M54.8599 0H0V32H54.8599V0Z" fill="white"/>
</mask>
<g mask="url(#mask62_238_25764)">
<path d="M22.4201 10.5294L22.6375 11.1816H23.3174L22.765 11.5836L22.9791 12.2342L22.4201 11.8337L21.8709 12.2342L22.0785 11.5836L21.526 11.1816H22.2092L22.4201 10.5294Z" fill="white"/>
</g>
<mask id="mask63_238_25764" style="mask-type:luminance" maskUnits="userSpaceOnUse" x="0" y="0" width="55" height="32">
<path d="M54.8599 0H0V32H54.8599V0Z" fill="white"/>
</mask>
<g mask="url(#mask63_238_25764)">
<path d="M22.4201 13.4044L22.6375 14.0599H23.3174L22.765 14.4587L22.9791 15.1092L22.4201 14.7071L21.8709 15.1092L22.0785 14.4587L21.526 14.0599H22.2092L22.4201 13.4044Z" fill="white"/>
</g>
</svg>
