<svg width="24" height="24" viewBox="0 0 24 24" fill="none" xmlns="http://www.w3.org/2000/svg">
<path d="M23.5861 19.8621H0.413812C0.185297 19.8621 0 19.6768 0 19.4483V4.55175C0 4.32324 0.185297 4.13794 0.413812 4.13794H23.5862C23.8147 4.13794 24 4.32324 24 4.55175V19.4483C24 19.6768 23.8147 19.8621 23.5861 19.8621Z" fill="#F5F5F5"/>
<path d="M24 5.34755H0V4.55175C0 4.32324 0.185297 4.13794 0.413812 4.13794H23.5862C23.8147 4.13794 24 4.32324 24 4.55175L24 5.34755Z" fill="#FF4B55"/>
<path d="M24 8.97614H0V10.1857H24V8.97614Z" fill="#FF4B55"/>
<path d="M24 6.55695H0V7.76651H24V6.55695Z" fill="#FF4B55"/>
<path d="M24 12.6048H0.413812C0.185297 12.6048 0 12.4195 0 12.191V11.3952H24V12.6048Z" fill="#FF4B55"/>
<path d="M24 16.2338H0V17.4433H24V16.2338Z" fill="#FF4B55"/>
<path d="M23.5861 19.8621H0.413812C0.185297 19.8621 0 19.6768 0 19.4483V18.6525H24V19.4483C24 19.6768 23.8147 19.8621 23.5861 19.8621Z" fill="#FF4B55"/>
<path d="M24 13.8146H0V15.0241H24V13.8146Z" fill="#FF4B55"/>
<path d="M10.7586 4.138H0.413812C0.185297 4.138 0 4.32325 0 4.55177V12.191C0 12.4195 0.185297 12.6048 0.413812 12.6048H10.7586C10.9872 12.6048 11.1724 12.4195 11.1724 12.191V4.55177C11.1724 4.32325 10.9871 4.138 10.7586 4.138Z" fill="#41479B"/>
<path d="M1.16186 5.08851L1.25345 5.36319L1.543 5.3654C1.5805 5.36572 1.59602 5.41354 1.56587 5.4358L1.33295 5.60783L1.42033 5.88388C1.43167 5.9196 1.39094 5.94922 1.36042 5.92738L1.12488 5.75905L0.889329 5.92743C0.858813 5.94922 0.818173 5.91965 0.829423 5.88393L0.916798 5.60788L0.683876 5.43585C0.653736 5.41354 0.669251 5.36577 0.706751 5.36544L0.996297 5.36324L1.08789 5.08855C1.0997 5.05293 1.14995 5.05293 1.16186 5.08851Z" fill="#F5F5F5"/>
<path d="M1.16186 6.52463L1.25345 6.79932L1.543 6.80152C1.5805 6.80185 1.59602 6.84966 1.56587 6.87192L1.33295 7.04396L1.42033 7.32C1.43167 7.35572 1.39094 7.38535 1.36042 7.3635L1.12488 7.19517L0.889329 7.36355C0.858813 7.38535 0.818173 7.35577 0.829423 7.32005L0.916798 7.044L0.683876 6.87197C0.653736 6.84966 0.669251 6.80189 0.706751 6.80157L0.996297 6.79936L1.08789 6.52468C1.0997 6.4891 1.14995 6.4891 1.16186 6.52463Z" fill="#F5F5F5"/>
<path d="M1.16186 7.96152L1.25345 8.2362L1.543 8.23841C1.5805 8.23874 1.59602 8.28655 1.56587 8.30881L1.33295 8.48085L1.42033 8.75689C1.43167 8.79261 1.39094 8.82224 1.36042 8.80039L1.12488 8.63206L0.889329 8.80044C0.858813 8.82224 0.818173 8.79266 0.829423 8.75694L0.916798 8.48089L0.683876 8.30886C0.653736 8.28655 0.669251 8.23878 0.706751 8.23846L0.996297 8.23625L1.08789 7.96157C1.0997 7.92599 1.14995 7.92599 1.16186 7.96152Z" fill="#F5F5F5"/>
<path d="M1.16186 9.3985L1.25345 9.67319L1.543 9.67539C1.5805 9.67572 1.59602 9.72353 1.56587 9.7458L1.33295 9.91783L1.42033 10.1939C1.43167 10.2296 1.39094 10.2592 1.36042 10.2374L1.12488 10.069L0.889329 10.2374C0.858813 10.2592 0.818173 10.2296 0.829423 10.1939L0.916798 9.91788L0.683876 9.74585C0.653736 9.72353 0.669251 9.67577 0.706751 9.67544L0.996297 9.67324L1.08789 9.39855C1.0997 9.36293 1.14995 9.36293 1.16186 9.3985Z" fill="#F5F5F5"/>
<path d="M1.16186 10.8354L1.25345 11.1101L1.543 11.1123C1.5805 11.1126 1.59602 11.1604 1.56587 11.1827L1.33295 11.3547L1.42033 11.6307C1.43167 11.6665 1.39094 11.6961 1.36042 11.6742L1.12488 11.5059L0.889329 11.6743C0.858813 11.6961 0.818173 11.6665 0.829423 11.6308L0.916798 11.3547L0.683876 11.1827C0.653736 11.1604 0.669251 11.1126 0.706751 11.1123L0.996297 11.1101L1.08789 10.8354C1.0997 10.7997 1.14995 10.7997 1.16186 10.8354Z" fill="#F5F5F5"/>
<path d="M2.27716 5.79221L2.36875 6.0669L2.6583 6.0691C2.69579 6.06943 2.71131 6.11724 2.68117 6.13951L2.44825 6.31154L2.53562 6.58759C2.54697 6.6233 2.50623 6.65293 2.47572 6.63109L2.24017 6.46271L2.00462 6.63109C1.97411 6.65288 1.93347 6.6233 1.94472 6.58759L2.03209 6.31154L1.79917 6.13951C1.76903 6.1172 1.78455 6.06943 1.82205 6.0691L2.11159 6.0669L2.20319 5.79221C2.21495 5.75668 2.2653 5.75668 2.27716 5.79221Z" fill="#F5F5F5"/>
<path d="M2.27716 7.22914L2.36875 7.50382L2.6583 7.50603C2.69579 7.50636 2.71131 7.55417 2.68117 7.57643L2.44825 7.74846L2.53562 8.02451C2.54697 8.06023 2.50623 8.08985 2.47572 8.06801L2.24017 7.89964L2.00462 8.06801C1.97411 8.08981 1.93347 8.06028 1.94472 8.02451L2.03209 7.74846L1.79917 7.57643C1.76903 7.55412 1.78455 7.50636 1.82205 7.50603L2.11159 7.50382L2.20319 7.22914C2.21495 7.19356 2.2653 7.19356 2.27716 7.22914Z" fill="#F5F5F5"/>
<path d="M2.27716 8.66603L2.36875 8.94071L2.6583 8.94292C2.69579 8.94324 2.71131 8.99106 2.68117 9.01332L2.44825 9.18535L2.53562 9.4614C2.54697 9.49712 2.50623 9.52674 2.47572 9.5049L2.24017 9.33652L2.00462 9.5049C1.97411 9.5267 1.93347 9.49712 1.94472 9.4614L2.03209 9.18535L1.79917 9.01332C1.76903 8.99101 1.78455 8.94324 1.82205 8.94292L2.11159 8.94071L2.20319 8.66603C2.21495 8.63045 2.2653 8.63045 2.27716 8.66603Z" fill="#F5F5F5"/>
<path d="M2.27716 10.1029L2.36875 10.3776L2.6583 10.3798C2.69579 10.3802 2.71131 10.428 2.68117 10.4502L2.44825 10.6223L2.53562 10.8983C2.54697 10.934 2.50623 10.9637 2.47572 10.9418L2.24017 10.7734L2.00462 10.9418C1.97411 10.9636 1.93347 10.934 1.94472 10.8983L2.03209 10.6223L1.79917 10.4502C1.76903 10.4279 1.78455 10.3802 1.82205 10.3798L2.11159 10.3776L2.20319 10.1029C2.21495 10.0674 2.2653 10.0674 2.27716 10.1029Z" fill="#F5F5F5"/>
<path d="M3.39245 5.08772L3.48404 5.36241L3.77359 5.36461C3.81109 5.36494 3.82661 5.41275 3.79647 5.43501L3.56354 5.60705L3.65092 5.88309C3.66226 5.91881 3.62153 5.94844 3.59101 5.92659L3.35547 5.75822L3.11992 5.92659C3.0894 5.94839 3.04876 5.91881 3.06001 5.88309L3.14739 5.60705L2.91447 5.43501C2.88433 5.4127 2.89984 5.36494 2.93734 5.36461L3.22689 5.36241L3.31848 5.08772C3.33029 5.05214 3.38059 5.05214 3.39245 5.08772Z" fill="#F5F5F5"/>
<path d="M3.39245 6.52463L3.48404 6.79932L3.77359 6.80152C3.81109 6.80185 3.82661 6.84966 3.79647 6.87193L3.56354 7.04396L3.65092 7.32001C3.66226 7.35573 3.62153 7.38535 3.59101 7.36351L3.35547 7.19513L3.11992 7.36351C3.0894 7.3853 3.04876 7.35573 3.06001 7.32001L3.14739 7.04396L2.91447 6.87193C2.88433 6.84962 2.89984 6.80185 2.93734 6.80152L3.22689 6.79932L3.31848 6.52463C3.33029 6.4891 3.38059 6.4891 3.39245 6.52463Z" fill="#F5F5F5"/>
<path d="M3.39245 7.96152L3.48404 8.23621L3.77359 8.23841C3.81109 8.23874 3.82661 8.28656 3.79647 8.30882L3.56354 8.48085L3.65092 8.7569C3.66226 8.79262 3.62153 8.82224 3.59101 8.8004L3.35547 8.63202L3.11992 8.8004C3.0894 8.82219 3.04876 8.79262 3.06001 8.7569L3.14739 8.48085L2.91447 8.30882C2.88433 8.28651 2.89984 8.23874 2.93734 8.23841L3.22689 8.23621L3.31848 7.96152C3.33029 7.92599 3.38059 7.92599 3.39245 7.96152Z" fill="#F5F5F5"/>
<path d="M3.39245 9.39845L3.48404 9.67313L3.77359 9.67534C3.81109 9.67567 3.82661 9.72348 3.79647 9.74574L3.56354 9.91778L3.65092 10.1938C3.66226 10.2295 3.62153 10.2592 3.59101 10.2373L3.35547 10.0689L3.11992 10.2373C3.0894 10.2591 3.04876 10.2295 3.06001 10.1938L3.14739 9.91778L2.91447 9.74574C2.88433 9.72343 2.89984 9.67567 2.93734 9.67534L3.22689 9.67313L3.31848 9.39845C3.33029 9.36287 3.38059 9.36287 3.39245 9.39845Z" fill="#F5F5F5"/>
<path d="M3.39245 10.8354L3.48404 11.1101L3.77359 11.1123C3.81109 11.1126 3.82661 11.1604 3.79647 11.1827L3.56354 11.3547L3.65092 11.6307C3.66226 11.6665 3.62153 11.6961 3.59101 11.6742L3.35547 11.5059L3.11992 11.6742C3.0894 11.696 3.04876 11.6665 3.06001 11.6307L3.14739 11.3547L2.91447 11.1827C2.88433 11.1604 2.89984 11.1126 2.93734 11.1123L3.22689 11.1101L3.31848 10.8354C3.33029 10.7997 3.38059 10.7997 3.39245 10.8354Z" fill="#F5F5F5"/>
<path d="M4.50778 5.79221L4.59937 6.0669L4.88892 6.0691C4.92642 6.06943 4.94193 6.11724 4.91179 6.13951L4.67887 6.31154L4.76624 6.58759C4.77759 6.6233 4.73685 6.65293 4.70634 6.63109L4.47079 6.46271L4.23525 6.63109C4.20473 6.65288 4.16409 6.6233 4.17534 6.58759L4.26271 6.31154L4.02979 6.13951C3.99965 6.1172 4.01517 6.06943 4.05267 6.0691L4.34221 6.0669L4.43381 5.79221C4.44557 5.75668 4.49592 5.75668 4.50778 5.79221Z" fill="#F5F5F5"/>
<path d="M4.50778 7.22914L4.59937 7.50382L4.88892 7.50603C4.92642 7.50636 4.94193 7.55417 4.91179 7.57643L4.67887 7.74846L4.76624 8.02451C4.77759 8.06023 4.73685 8.08985 4.70634 8.06801L4.47079 7.89964L4.23525 8.06801C4.20473 8.08981 4.16409 8.06028 4.17534 8.02451L4.26271 7.74846L4.02979 7.57643C3.99965 7.55412 4.01517 7.50636 4.05267 7.50603L4.34221 7.50382L4.43381 7.22914C4.44557 7.19356 4.49592 7.19356 4.50778 7.22914Z" fill="#F5F5F5"/>
<path d="M4.50778 8.66603L4.59937 8.94071L4.88892 8.94292C4.92642 8.94324 4.94193 8.99106 4.91179 9.01332L4.67887 9.18535L4.76624 9.4614C4.77759 9.49712 4.73685 9.52674 4.70634 9.5049L4.47079 9.33652L4.23525 9.5049C4.20473 9.5267 4.16409 9.49712 4.17534 9.4614L4.26271 9.18535L4.02979 9.01332C3.99965 8.99101 4.01517 8.94324 4.05267 8.94292L4.34221 8.94071L4.43381 8.66603C4.44557 8.63045 4.49592 8.63045 4.50778 8.66603Z" fill="#F5F5F5"/>
<path d="M4.50778 10.1029L4.59937 10.3776L4.88892 10.3798C4.92642 10.3802 4.94193 10.428 4.91179 10.4502L4.67887 10.6223L4.76624 10.8983C4.77759 10.934 4.73685 10.9637 4.70634 10.9418L4.47079 10.7734L4.23525 10.9418C4.20473 10.9636 4.16409 10.934 4.17534 10.8983L4.26271 10.6223L4.02979 10.4502C3.99965 10.4279 4.01517 10.3802 4.05267 10.3798L4.34221 10.3776L4.43381 10.1029C4.44557 10.0674 4.49592 10.0674 4.50778 10.1029Z" fill="#F5F5F5"/>
<path d="M5.62309 5.08772L5.71468 5.36241L6.00423 5.36461C6.04173 5.36494 6.05724 5.41275 6.0271 5.43501L5.79418 5.60705L5.88156 5.88309C5.8929 5.91881 5.85217 5.94844 5.82165 5.92659L5.58606 5.75822L5.35051 5.92659C5.32 5.94839 5.27935 5.91881 5.2906 5.88309L5.37798 5.60705L5.14506 5.43501C5.11492 5.4127 5.13043 5.36494 5.16793 5.36461L5.45748 5.36241L5.54907 5.08772C5.56093 5.05214 5.61123 5.05214 5.62309 5.08772Z" fill="#F5F5F5"/>
<path d="M5.62309 6.52463L5.71468 6.79932L6.00423 6.80152C6.04173 6.80185 6.05724 6.84966 6.0271 6.87193L5.79418 7.04396L5.88156 7.32001C5.8929 7.35573 5.85217 7.38535 5.82165 7.36351L5.58606 7.19513L5.35051 7.36351C5.32 7.3853 5.27935 7.35573 5.2906 7.32001L5.37798 7.04396L5.14506 6.87193C5.11492 6.84962 5.13043 6.80185 5.16793 6.80152L5.45748 6.79932L5.54907 6.52463C5.56093 6.4891 5.61123 6.4891 5.62309 6.52463Z" fill="#F5F5F5"/>
<path d="M5.62309 7.96152L5.71468 8.23621L6.00423 8.23841C6.04173 8.23874 6.05724 8.28656 6.0271 8.30882L5.79418 8.48085L5.88156 8.7569C5.8929 8.79262 5.85217 8.82224 5.82165 8.8004L5.58606 8.63202L5.35051 8.8004C5.32 8.82219 5.27935 8.79262 5.2906 8.7569L5.37798 8.48085L5.14506 8.30882C5.11492 8.28651 5.13043 8.23874 5.16793 8.23841L5.45748 8.23621L5.54907 7.96152C5.56093 7.92599 5.61123 7.92599 5.62309 7.96152Z" fill="#F5F5F5"/>
<path d="M5.62309 9.39845L5.71468 9.67313L6.00423 9.67534C6.04173 9.67567 6.05724 9.72348 6.0271 9.74574L5.79418 9.91778L5.88156 10.1938C5.8929 10.2295 5.85217 10.2592 5.82165 10.2373L5.58606 10.0689L5.35051 10.2373C5.32 10.2591 5.27935 10.2295 5.2906 10.1938L5.37798 9.91778L5.14506 9.74574C5.11492 9.72343 5.13043 9.67567 5.16793 9.67534L5.45748 9.67313L5.54907 9.39845C5.56093 9.36287 5.61123 9.36287 5.62309 9.39845Z" fill="#F5F5F5"/>
<path d="M5.62309 10.8354L5.71468 11.1101L6.00423 11.1123C6.04173 11.1126 6.05724 11.1604 6.0271 11.1827L5.79418 11.3547L5.88156 11.6307C5.8929 11.6665 5.85217 11.6961 5.82165 11.6742L5.58606 11.5059L5.35051 11.6742C5.32 11.696 5.27935 11.6665 5.2906 11.6307L5.37798 11.3547L5.14506 11.1827C5.11492 11.1604 5.13043 11.1126 5.16793 11.1123L5.45748 11.1101L5.54907 10.8354C5.56093 10.7997 5.61123 10.7997 5.62309 10.8354Z" fill="#F5F5F5"/>
<path d="M6.73837 5.79221L6.82996 6.0669L7.11951 6.0691C7.15701 6.06943 7.17252 6.11724 7.14238 6.13951L6.90946 6.31154L6.99684 6.58759C7.00818 6.6233 6.96744 6.65293 6.93693 6.63109L6.70138 6.46271L6.46584 6.63109C6.43532 6.65288 6.39468 6.6233 6.40593 6.58759L6.4933 6.31154L6.26038 6.13951C6.23024 6.1172 6.24576 6.06943 6.28326 6.0691L6.57281 6.0669L6.6644 5.79221C6.67626 5.75668 6.72651 5.75668 6.73837 5.79221Z" fill="#F5F5F5"/>
<path d="M6.73837 7.22914L6.82996 7.50382L7.11951 7.50603C7.15701 7.50636 7.17252 7.55417 7.14238 7.57643L6.90946 7.74846L6.99684 8.02451C7.00818 8.06023 6.96744 8.08985 6.93693 8.06801L6.70138 7.89964L6.46584 8.06801C6.43532 8.08981 6.39468 8.06028 6.40593 8.02451L6.4933 7.74846L6.26038 7.57643C6.23024 7.55412 6.24576 7.50636 6.28326 7.50603L6.57281 7.50382L6.6644 7.22914C6.67626 7.19356 6.72651 7.19356 6.73837 7.22914Z" fill="#F5F5F5"/>
<path d="M6.73837 8.66603L6.82996 8.94071L7.11951 8.94292C7.15701 8.94324 7.17252 8.99106 7.14238 9.01332L6.90946 9.18535L6.99684 9.4614C7.00818 9.49712 6.96744 9.52674 6.93693 9.5049L6.70138 9.33652L6.46584 9.5049C6.43532 9.5267 6.39468 9.49712 6.40593 9.4614L6.4933 9.18535L6.26038 9.01332C6.23024 8.99101 6.24576 8.94324 6.28326 8.94292L6.57281 8.94071L6.6644 8.66603C6.67626 8.63045 6.72651 8.63045 6.73837 8.66603Z" fill="#F5F5F5"/>
<path d="M6.73837 10.1029L6.82996 10.3776L7.11951 10.3798C7.15701 10.3802 7.17252 10.428 7.14238 10.4502L6.90946 10.6223L6.99684 10.8983C7.00818 10.934 6.96744 10.9637 6.93693 10.9418L6.70138 10.7734L6.46584 10.9418C6.43532 10.9636 6.39468 10.934 6.40593 10.8983L6.4933 10.6223L6.26038 10.4502C6.23024 10.4279 6.24576 10.3802 6.28326 10.3798L6.57281 10.3776L6.6644 10.1029C6.67626 10.0674 6.72651 10.0674 6.73837 10.1029Z" fill="#F5F5F5"/>
<path d="M7.85372 5.08772L7.94532 5.36241L8.23486 5.36461C8.27236 5.36494 8.28788 5.41275 8.25774 5.43501L8.02482 5.60705L8.11219 5.88309C8.12354 5.91881 8.0828 5.94844 8.05229 5.92659L7.81674 5.75822L7.58119 5.92659C7.55068 5.94839 7.51004 5.91881 7.52129 5.88309L7.60866 5.60705L7.37574 5.43501C7.3456 5.4127 7.36111 5.36494 7.39861 5.36461L7.68816 5.36241L7.77975 5.08772C7.79152 5.05214 7.84186 5.05214 7.85372 5.08772Z" fill="#F5F5F5"/>
<path d="M7.85372 6.52463L7.94532 6.79932L8.23486 6.80152C8.27236 6.80185 8.28788 6.84966 8.25774 6.87193L8.02482 7.04396L8.11219 7.32001C8.12354 7.35573 8.0828 7.38535 8.05229 7.36351L7.81674 7.19513L7.58119 7.36351C7.55068 7.3853 7.51004 7.35573 7.52129 7.32001L7.60866 7.04396L7.37574 6.87193C7.3456 6.84962 7.36111 6.80185 7.39861 6.80152L7.68816 6.79932L7.77975 6.52463C7.79152 6.4891 7.84186 6.4891 7.85372 6.52463Z" fill="#F5F5F5"/>
<path d="M7.85372 7.96152L7.94532 8.23621L8.23486 8.23841C8.27236 8.23874 8.28788 8.28656 8.25774 8.30882L8.02482 8.48085L8.11219 8.7569C8.12354 8.79262 8.0828 8.82224 8.05229 8.8004L7.81674 8.63202L7.58119 8.8004C7.55068 8.82219 7.51004 8.79262 7.52129 8.7569L7.60866 8.48085L7.37574 8.30882C7.3456 8.28651 7.36111 8.23874 7.39861 8.23841L7.68816 8.23621L7.77975 7.96152C7.79152 7.92599 7.84186 7.92599 7.85372 7.96152Z" fill="#F5F5F5"/>
<path d="M7.85372 9.39845L7.94532 9.67313L8.23486 9.67534C8.27236 9.67567 8.28788 9.72348 8.25774 9.74574L8.02482 9.91778L8.11219 10.1938C8.12354 10.2295 8.0828 10.2592 8.05229 10.2373L7.81674 10.0689L7.58119 10.2373C7.55068 10.2591 7.51004 10.2295 7.52129 10.1938L7.60866 9.91778L7.37574 9.74574C7.3456 9.72343 7.36111 9.67567 7.39861 9.67534L7.68816 9.67313L7.77975 9.39845C7.79152 9.36287 7.84186 9.36287 7.85372 9.39845Z" fill="#F5F5F5"/>
<path d="M7.85372 10.8354L7.94532 11.1101L8.23486 11.1123C8.27236 11.1126 8.28788 11.1604 8.25774 11.1827L8.02482 11.3547L8.11219 11.6307C8.12354 11.6665 8.0828 11.6961 8.05229 11.6742L7.81674 11.5059L7.58119 11.6742C7.55068 11.696 7.51004 11.6665 7.52129 11.6307L7.60866 11.3547L7.37574 11.1827C7.3456 11.1604 7.36111 11.1126 7.39861 11.1123L7.68816 11.1101L7.77975 10.8354C7.79152 10.7997 7.84186 10.7997 7.85372 10.8354Z" fill="#F5F5F5"/>
<path d="M8.96902 5.79221L9.06061 6.0669L9.35016 6.0691C9.38766 6.06943 9.40317 6.11724 9.37303 6.13951L9.14011 6.31154L9.22749 6.58759C9.23883 6.6233 9.1981 6.65293 9.16758 6.63109L8.93203 6.46271L8.69649 6.63109C8.66597 6.65288 8.62533 6.6233 8.63658 6.58759L8.72396 6.31154L8.49104 6.13951C8.4609 6.1172 8.47641 6.06943 8.51391 6.0691L8.80346 6.0669L8.89505 5.79221C8.90686 5.75668 8.95721 5.75668 8.96902 5.79221Z" fill="#F5F5F5"/>
<path d="M8.96902 7.22914L9.06061 7.50382L9.35016 7.50603C9.38766 7.50636 9.40317 7.55417 9.37303 7.57643L9.14011 7.74846L9.22749 8.02451C9.23883 8.06023 9.1981 8.08985 9.16758 8.06801L8.93203 7.89964L8.69649 8.06801C8.66597 8.08981 8.62533 8.06028 8.63658 8.02451L8.72396 7.74846L8.49104 7.57643C8.4609 7.55412 8.47641 7.50636 8.51391 7.50603L8.80346 7.50382L8.89505 7.22914C8.90686 7.19356 8.95721 7.19356 8.96902 7.22914Z" fill="#F5F5F5"/>
<path d="M8.96902 8.66603L9.06061 8.94071L9.35016 8.94292C9.38766 8.94324 9.40317 8.99106 9.37303 9.01332L9.14011 9.18535L9.22749 9.4614C9.23883 9.49712 9.1981 9.52674 9.16758 9.5049L8.93203 9.33652L8.69649 9.5049C8.66597 9.5267 8.62533 9.49712 8.63658 9.4614L8.72396 9.18535L8.49104 9.01332C8.4609 8.99101 8.47641 8.94324 8.51391 8.94292L8.80346 8.94071L8.89505 8.66603C8.90686 8.63045 8.95721 8.63045 8.96902 8.66603Z" fill="#F5F5F5"/>
<path d="M8.96902 10.1029L9.06061 10.3776L9.35016 10.3798C9.38766 10.3802 9.40317 10.428 9.37303 10.4502L9.14011 10.6223L9.22749 10.8983C9.23883 10.934 9.1981 10.9637 9.16758 10.9418L8.93203 10.7734L8.69649 10.9418C8.66597 10.9636 8.62533 10.934 8.63658 10.8983L8.72396 10.6223L8.49104 10.4502C8.4609 10.4279 8.47641 10.3802 8.51391 10.3798L8.80346 10.3776L8.89505 10.1029C8.90686 10.0674 8.95721 10.0674 8.96902 10.1029Z" fill="#F5F5F5"/>
<path d="M10.0843 5.08772L10.1759 5.36241L10.4655 5.36461C10.503 5.36494 10.5185 5.41275 10.4884 5.43501L10.2554 5.60705L10.3428 5.88309C10.3542 5.91881 10.3134 5.94844 10.2829 5.92659L10.0474 5.75822L9.81181 5.92659C9.7813 5.94839 9.74066 5.91881 9.75191 5.88309L9.83928 5.60705L9.60636 5.43501C9.57622 5.4127 9.59174 5.36494 9.62924 5.36461L9.91878 5.36241L10.0104 5.08772C10.0222 5.05214 10.0724 5.05214 10.0843 5.08772Z" fill="#F5F5F5"/>
<path d="M10.0843 6.52463L10.1759 6.79932L10.4655 6.80152C10.503 6.80185 10.5185 6.84966 10.4884 6.87193L10.2554 7.04396L10.3428 7.32001C10.3542 7.35573 10.3134 7.38535 10.2829 7.36351L10.0474 7.19513L9.81181 7.36351C9.7813 7.3853 9.74066 7.35573 9.75191 7.32001L9.83928 7.04396L9.60636 6.87193C9.57622 6.84962 9.59174 6.80185 9.62924 6.80152L9.91878 6.79932L10.0104 6.52463C10.0222 6.4891 10.0724 6.4891 10.0843 6.52463Z" fill="#F5F5F5"/>
<path d="M10.0843 7.96152L10.1759 8.23621L10.4655 8.23841C10.503 8.23874 10.5185 8.28656 10.4884 8.30882L10.2554 8.48085L10.3428 8.7569C10.3542 8.79262 10.3134 8.82224 10.2829 8.8004L10.0474 8.63202L9.81181 8.8004C9.7813 8.82219 9.74066 8.79262 9.75191 8.7569L9.83928 8.48085L9.60636 8.30882C9.57622 8.28651 9.59174 8.23874 9.62924 8.23841L9.91878 8.23621L10.0104 7.96152C10.0222 7.92599 10.0724 7.92599 10.0843 7.96152Z" fill="#F5F5F5"/>
<path d="M10.0843 9.39845L10.1759 9.67313L10.4655 9.67534C10.503 9.67567 10.5185 9.72348 10.4884 9.74574L10.2554 9.91778L10.3428 10.1938C10.3542 10.2295 10.3134 10.2592 10.2829 10.2373L10.0474 10.0689L9.81181 10.2373C9.7813 10.2591 9.74066 10.2295 9.75191 10.1938L9.83928 9.91778L9.60636 9.74574C9.57622 9.72343 9.59174 9.67567 9.62924 9.67534L9.91878 9.67313L10.0104 9.39845C10.0222 9.36287 10.0724 9.36287 10.0843 9.39845Z" fill="#F5F5F5"/>
<path d="M10.0843 10.8354L10.1759 11.1101L10.4655 11.1123C10.503 11.1126 10.5185 11.1604 10.4884 11.1827L10.2554 11.3547L10.3428 11.6307C10.3542 11.6665 10.3134 11.6961 10.2829 11.6742L10.0474 11.5059L9.81181 11.6742C9.7813 11.696 9.74066 11.6665 9.75191 11.6307L9.83928 11.3547L9.60636 11.1827C9.57622 11.1604 9.59174 11.1126 9.62924 11.1123L9.91878 11.1101L10.0104 10.8354C10.0222 10.7997 10.0724 10.7997 10.0843 10.8354Z" fill="#F5F5F5"/>
</svg>
