<svg width="42" height="24" viewBox="0 0 42 24" fill="none" xmlns="http://www.w3.org/2000/svg">
<mask id="mask0_238_25505" style="mask-type:luminance" maskUnits="userSpaceOnUse" x="0" y="0" width="42" height="24">
<path d="M41.1449 0H0V24H41.1449V0Z" fill="white"/>
</mask>
<g mask="url(#mask0_238_25505)">
<path d="M41.1449 22.1539H0V24.0001H41.1449V22.1539Z" fill="#CB001C"/>
</g>
<mask id="mask1_238_25505" style="mask-type:luminance" maskUnits="userSpaceOnUse" x="0" y="0" width="42" height="24">
<path d="M41.1449 0H0V24H41.1449V0Z" fill="white"/>
</mask>
<g mask="url(#mask1_238_25505)">
<path d="M41.1449 20.309H0V22.1551H41.1449V20.309Z" fill="white"/>
</g>
<mask id="mask2_238_25505" style="mask-type:luminance" maskUnits="userSpaceOnUse" x="0" y="0" width="42" height="24">
<path d="M41.1449 0H0V24H41.1449V0Z" fill="white"/>
</mask>
<g mask="url(#mask2_238_25505)">
<path d="M41.1449 18.464H0V20.3089H41.1449V18.464Z" fill="#CB001C"/>
</g>
<mask id="mask3_238_25505" style="mask-type:luminance" maskUnits="userSpaceOnUse" x="0" y="0" width="42" height="24">
<path d="M41.1449 0H0V24H41.1449V0Z" fill="white"/>
</mask>
<g mask="url(#mask3_238_25505)">
<path d="M41.1449 16.6179H0V18.4641H41.1449V16.6179Z" fill="white"/>
</g>
<mask id="mask4_238_25505" style="mask-type:luminance" maskUnits="userSpaceOnUse" x="0" y="0" width="42" height="24">
<path d="M41.1449 0H0V24H41.1449V0Z" fill="white"/>
</mask>
<g mask="url(#mask4_238_25505)">
<path d="M41.1449 14.7705H0V16.6179H41.1449V14.7705Z" fill="#CB001C"/>
</g>
<mask id="mask5_238_25505" style="mask-type:luminance" maskUnits="userSpaceOnUse" x="0" y="0" width="42" height="24">
<path d="M41.1449 0H0V24H41.1449V0Z" fill="white"/>
</mask>
<g mask="url(#mask5_238_25505)">
<path d="M41.1449 12.9255H0V14.7705H41.1449V12.9255Z" fill="white"/>
</g>
<mask id="mask6_238_25505" style="mask-type:luminance" maskUnits="userSpaceOnUse" x="0" y="0" width="42" height="24">
<path d="M41.1449 0H0V24H41.1449V0Z" fill="white"/>
</mask>
<g mask="url(#mask6_238_25505)">
<path d="M41.1449 11.0769H0V12.9255H41.1449V11.0769Z" fill="#CB001C"/>
</g>
<mask id="mask7_238_25505" style="mask-type:luminance" maskUnits="userSpaceOnUse" x="0" y="0" width="42" height="24">
<path d="M41.1449 0H0V24H41.1449V0Z" fill="white"/>
</mask>
<g mask="url(#mask7_238_25505)">
<path d="M41.1449 9.23206H0V11.077H41.1449V9.23206Z" fill="white"/>
</g>
<mask id="mask8_238_25505" style="mask-type:luminance" maskUnits="userSpaceOnUse" x="0" y="0" width="42" height="24">
<path d="M41.1449 0H0V24H41.1449V0Z" fill="white"/>
</mask>
<g mask="url(#mask8_238_25505)">
<path d="M41.1449 7.38708H0V9.23324H41.1449V7.38708Z" fill="#CB001C"/>
</g>
<mask id="mask9_238_25505" style="mask-type:luminance" maskUnits="userSpaceOnUse" x="0" y="0" width="42" height="24">
<path d="M41.1449 0H0V24H41.1449V0Z" fill="white"/>
</mask>
<g mask="url(#mask9_238_25505)">
<path d="M41.1449 5.53967H0V7.38706H41.1449V5.53967Z" fill="white"/>
</g>
<mask id="mask10_238_25505" style="mask-type:luminance" maskUnits="userSpaceOnUse" x="0" y="0" width="42" height="24">
<path d="M41.1449 0H0V24H41.1449V0Z" fill="white"/>
</mask>
<g mask="url(#mask10_238_25505)">
<path d="M41.1449 3.69348H0V5.53963H41.1449V3.69348Z" fill="#CB001C"/>
</g>
<mask id="mask11_238_25505" style="mask-type:luminance" maskUnits="userSpaceOnUse" x="0" y="0" width="42" height="24">
<path d="M41.1449 0H0V24H41.1449V0Z" fill="white"/>
</mask>
<g mask="url(#mask11_238_25505)">
<path d="M41.1449 1.84729H0V3.69346H41.1449V1.84729Z" fill="white"/>
</g>
<mask id="mask12_238_25505" style="mask-type:luminance" maskUnits="userSpaceOnUse" x="0" y="0" width="42" height="24">
<path d="M41.1449 0H0V24H41.1449V0Z" fill="white"/>
</mask>
<g mask="url(#mask12_238_25505)">
<path d="M41.1449 0H0V1.84737H41.1449V0Z" fill="#CB001C"/>
</g>
<mask id="mask13_238_25505" style="mask-type:luminance" maskUnits="userSpaceOnUse" x="0" y="0" width="42" height="24">
<path d="M41.1449 0H0V24H41.1449V0Z" fill="white"/>
</mask>
<g mask="url(#mask13_238_25505)">
<path d="M18.7901 0H0V12.9255H18.7901V0Z" fill="#2A3560"/>
</g>
<mask id="mask14_238_25505" style="mask-type:luminance" maskUnits="userSpaceOnUse" x="0" y="0" width="42" height="24">
<path d="M41.1449 0H0V24H41.1449V0Z" fill="white"/>
</mask>
<g mask="url(#mask14_238_25505)">
<path d="M1.69775 1.42444L1.85832 1.9148H2.37316L1.95641 2.21636L2.1145 2.70425L1.69775 2.40269L1.28092 2.70425L1.44396 2.21636L1.02713 1.9148H1.53711L1.69775 1.42444Z" fill="white"/>
</g>
<mask id="mask15_238_25505" style="mask-type:luminance" maskUnits="userSpaceOnUse" x="0" y="0" width="42" height="24">
<path d="M41.1449 0H0V24H41.1449V0Z" fill="white"/>
</mask>
<g mask="url(#mask15_238_25505)">
<path d="M1.69775 3.58313L1.85832 4.07104H2.37316L1.95641 4.37137L2.1145 4.86171L1.69775 4.55893L1.28092 4.86171L1.44396 4.37137L1.02713 4.07104H1.53711L1.69775 3.58313Z" fill="white"/>
</g>
<mask id="mask16_238_25505" style="mask-type:luminance" maskUnits="userSpaceOnUse" x="0" y="0" width="42" height="24">
<path d="M41.1449 0H0V24H41.1449V0Z" fill="white"/>
</mask>
<g mask="url(#mask16_238_25505)">
<path d="M1.69775 5.74072L1.85832 6.2274H2.37316L1.95641 6.52894L2.1145 7.0193L1.69775 6.7165L1.28092 7.0193L1.44396 6.52894L1.02713 6.2274H1.53711L1.69775 5.74072Z" fill="white"/>
</g>
<mask id="mask17_238_25505" style="mask-type:luminance" maskUnits="userSpaceOnUse" x="0" y="0" width="42" height="24">
<path d="M41.1449 0H0V24H41.1449V0Z" fill="white"/>
</mask>
<g mask="url(#mask17_238_25505)">
<path d="M1.69775 7.89709L1.85832 8.3862H2.37316L1.95641 8.68777L2.1145 9.17567L1.69775 8.87532L1.28092 9.17567L1.44396 8.68777L1.02713 8.3862H1.53711L1.69775 7.89709Z" fill="white"/>
</g>
<mask id="mask18_238_25505" style="mask-type:luminance" maskUnits="userSpaceOnUse" x="0" y="0" width="42" height="24">
<path d="M41.1449 0H0V24H41.1449V0Z" fill="white"/>
</mask>
<g mask="url(#mask18_238_25505)">
<path d="M1.69775 10.0533L1.85832 10.5449H2.37316L1.95641 10.844L2.1145 11.3319L1.69775 11.0304L1.28092 11.3319L1.44396 10.844L1.02713 10.5449H1.53711L1.69775 10.0533Z" fill="white"/>
</g>
<mask id="mask19_238_25505" style="mask-type:luminance" maskUnits="userSpaceOnUse" x="0" y="0" width="42" height="24">
<path d="M41.1449 0H0V24H41.1449V0Z" fill="white"/>
</mask>
<g mask="url(#mask19_238_25505)">
<path d="M3.20198 2.56079L3.35521 3.05115H3.87125L3.45816 3.35393L3.61259 3.8406L3.20198 3.54027L2.78762 3.8406L2.94205 3.35393L2.52896 3.05115H3.0438L3.20198 2.56079Z" fill="white"/>
</g>
<mask id="mask20_238_25505" style="mask-type:luminance" maskUnits="userSpaceOnUse" x="0" y="0" width="42" height="24">
<path d="M41.1449 0H0V24H41.1449V0Z" fill="white"/>
</mask>
<g mask="url(#mask20_238_25505)">
<path d="M3.20198 4.7196L3.35521 5.20628H3.87125L3.45816 5.50906L3.61259 5.99697L3.20198 5.69785L2.78762 5.99697L2.94205 5.50906L2.52896 5.20628H3.0438L3.20198 4.7196Z" fill="white"/>
</g>
<mask id="mask21_238_25505" style="mask-type:luminance" maskUnits="userSpaceOnUse" x="0" y="0" width="42" height="24">
<path d="M41.1449 0H0V24H41.1449V0Z" fill="white"/>
</mask>
<g mask="url(#mask21_238_25505)">
<path d="M3.20198 6.87708L3.35521 7.36496H3.87125L3.45816 7.66653L3.61259 8.15565L3.20198 7.85285L2.78762 8.15565L2.94205 7.66653L2.52896 7.36496H3.0438L3.20198 6.87708Z" fill="white"/>
</g>
<mask id="mask22_238_25505" style="mask-type:luminance" maskUnits="userSpaceOnUse" x="0" y="0" width="42" height="24">
<path d="M41.1449 0H0V24H41.1449V0Z" fill="white"/>
</mask>
<g mask="url(#mask22_238_25505)">
<path d="M3.20198 9.03467L3.35521 9.52256H3.87125L3.45816 9.82412L3.61259 10.3108L3.20198 10.008L2.78762 10.3108L2.94205 9.82412L2.52896 9.52256H3.0438L3.20198 9.03467Z" fill="white"/>
</g>
<mask id="mask23_238_25505" style="mask-type:luminance" maskUnits="userSpaceOnUse" x="0" y="0" width="42" height="24">
<path d="M41.1449 0H0V24H41.1449V0Z" fill="white"/>
</mask>
<g mask="url(#mask23_238_25505)">
<path d="M4.71925 1.42444L4.87982 1.9148H5.39346L4.97791 2.21636L5.13728 2.70425L4.71925 2.40269L4.30736 2.70425L4.46553 2.21636L4.04871 1.9148H4.56115L4.71925 1.42444Z" fill="white"/>
</g>
<mask id="mask24_238_25505" style="mask-type:luminance" maskUnits="userSpaceOnUse" x="0" y="0" width="42" height="24">
<path d="M41.1449 0H0V24H41.1449V0Z" fill="white"/>
</mask>
<g mask="url(#mask24_238_25505)">
<path d="M4.71925 3.58313L4.87982 4.07104H5.39346L4.97791 4.37137L5.13728 4.86171L4.71925 4.55893L4.30736 4.86171L4.46553 4.37137L4.04871 4.07104H4.56115L4.71925 3.58313Z" fill="white"/>
</g>
<mask id="mask25_238_25505" style="mask-type:luminance" maskUnits="userSpaceOnUse" x="0" y="0" width="42" height="24">
<path d="M41.1449 0H0V24H41.1449V0Z" fill="white"/>
</mask>
<g mask="url(#mask25_238_25505)">
<path d="M4.71925 5.74072L4.87982 6.2274H5.39346L4.97791 6.52894L5.13728 7.0193L4.71925 6.7165L4.30736 7.0193L4.46553 6.52894L4.04871 6.2274H4.56115L4.71925 5.74072Z" fill="white"/>
</g>
<mask id="mask26_238_25505" style="mask-type:luminance" maskUnits="userSpaceOnUse" x="0" y="0" width="42" height="24">
<path d="M41.1449 0H0V24H41.1449V0Z" fill="white"/>
</mask>
<g mask="url(#mask26_238_25505)">
<path d="M4.71925 7.89709L4.87982 8.3862H5.39346L4.97791 8.68777L5.13728 9.17567L4.71925 8.87532L4.30736 9.17567L4.46553 8.68777L4.04871 8.3862H4.56115L4.71925 7.89709Z" fill="white"/>
</g>
<mask id="mask27_238_25505" style="mask-type:luminance" maskUnits="userSpaceOnUse" x="0" y="0" width="42" height="24">
<path d="M41.1449 0H0V24H41.1449V0Z" fill="white"/>
</mask>
<g mask="url(#mask27_238_25505)">
<path d="M4.71925 10.0533L4.87982 10.5449H5.39346L4.97791 10.844L5.13728 11.3319L4.71925 11.0304L4.30736 11.3319L4.46553 10.844L4.04871 10.5449H4.56115L4.71925 10.0533Z" fill="white"/>
</g>
<mask id="mask28_238_25505" style="mask-type:luminance" maskUnits="userSpaceOnUse" x="0" y="0" width="42" height="24">
<path d="M41.1449 0H0V24H41.1449V0Z" fill="white"/>
</mask>
<g mask="url(#mask28_238_25505)">
<path d="M6.22233 2.56079L6.38043 3.05115H6.89774L6.47852 3.35393L6.63908 3.8406L6.22233 3.54027L5.80797 3.8406L5.96854 3.35393L5.54932 3.05115H6.06416L6.22233 2.56079Z" fill="white"/>
</g>
<mask id="mask29_238_25505" style="mask-type:luminance" maskUnits="userSpaceOnUse" x="0" y="0" width="42" height="24">
<path d="M41.1449 0H0V24H41.1449V0Z" fill="white"/>
</mask>
<g mask="url(#mask29_238_25505)">
<path d="M6.22233 4.7196L6.38043 5.20628H6.89774L6.47852 5.50906L6.63908 5.99697L6.22233 5.69785L5.80797 5.99697L5.96854 5.50906L5.54932 5.20628H6.06416L6.22233 4.7196Z" fill="white"/>
</g>
<mask id="mask30_238_25505" style="mask-type:luminance" maskUnits="userSpaceOnUse" x="0" y="0" width="42" height="24">
<path d="M41.1449 0H0V24H41.1449V0Z" fill="white"/>
</mask>
<g mask="url(#mask30_238_25505)">
<path d="M6.22233 6.87708L6.38043 7.36496H6.89774L6.47852 7.66653L6.63908 8.15565L6.22233 7.85285L5.80797 8.15565L5.96854 7.66653L5.54932 7.36496H6.06416L6.22233 6.87708Z" fill="white"/>
</g>
<mask id="mask31_238_25505" style="mask-type:luminance" maskUnits="userSpaceOnUse" x="0" y="0" width="42" height="24">
<path d="M41.1449 0H0V24H41.1449V0Z" fill="white"/>
</mask>
<g mask="url(#mask31_238_25505)">
<path d="M6.22233 9.03467L6.38043 9.52256H6.89774L6.47852 9.82412L6.63908 10.3108L6.22233 10.008L5.80797 10.3108L5.96854 9.82412L5.54932 9.52256H6.06416L6.22233 9.03467Z" fill="white"/>
</g>
<mask id="mask32_238_25505" style="mask-type:luminance" maskUnits="userSpaceOnUse" x="0" y="0" width="42" height="24">
<path d="M41.1449 0H0V24H41.1449V0Z" fill="white"/>
</mask>
<g mask="url(#mask32_238_25505)">
<path d="M7.74623 1.42444L7.9056 1.9148H8.41558L7.99875 2.21636L8.16425 2.70425L7.74623 2.40269L7.32948 2.70425L7.48757 2.21636L7.07568 1.9148H7.58813L7.74623 1.42444Z" fill="white"/>
</g>
<mask id="mask33_238_25505" style="mask-type:luminance" maskUnits="userSpaceOnUse" x="0" y="0" width="42" height="24">
<path d="M41.1449 0H0V24H41.1449V0Z" fill="white"/>
</mask>
<g mask="url(#mask33_238_25505)">
<path d="M7.74623 3.58313L7.9056 4.07104H8.41558L7.99875 4.37137L8.16425 4.86171L7.74623 4.55893L7.32948 4.86171L7.48757 4.37137L7.07568 4.07104H7.58813L7.74623 3.58313Z" fill="white"/>
</g>
<mask id="mask34_238_25505" style="mask-type:luminance" maskUnits="userSpaceOnUse" x="0" y="0" width="42" height="24">
<path d="M41.1449 0H0V24H41.1449V0Z" fill="white"/>
</mask>
<g mask="url(#mask34_238_25505)">
<path d="M7.74623 5.74072L7.9056 6.2274H8.41558L7.99875 6.52894L8.16425 7.0193L7.74623 6.7165L7.32948 7.0193L7.48757 6.52894L7.07568 6.2274H7.58813L7.74623 5.74072Z" fill="white"/>
</g>
<mask id="mask35_238_25505" style="mask-type:luminance" maskUnits="userSpaceOnUse" x="0" y="0" width="42" height="24">
<path d="M41.1449 0H0V24H41.1449V0Z" fill="white"/>
</mask>
<g mask="url(#mask35_238_25505)">
<path d="M7.74623 7.89709L7.9056 8.3862H8.41558L7.99875 8.68777L8.16425 9.17567L7.74623 8.87532L7.32948 9.17567L7.48757 8.68777L7.07568 8.3862H7.58813L7.74623 7.89709Z" fill="white"/>
</g>
<mask id="mask36_238_25505" style="mask-type:luminance" maskUnits="userSpaceOnUse" x="0" y="0" width="42" height="24">
<path d="M41.1449 0H0V24H41.1449V0Z" fill="white"/>
</mask>
<g mask="url(#mask36_238_25505)">
<path d="M7.74623 10.0533L7.9056 10.5449H8.41558L7.99875 10.844L8.16425 11.3319L7.74623 11.0304L7.32948 11.3319L7.48757 10.844L7.07568 10.5449H7.58813L7.74623 10.0533Z" fill="white"/>
</g>
<mask id="mask37_238_25505" style="mask-type:luminance" maskUnits="userSpaceOnUse" x="0" y="0" width="42" height="24">
<path d="M41.1449 0H0V24H41.1449V0Z" fill="white"/>
</mask>
<g mask="url(#mask37_238_25505)">
<path d="M9.24928 2.56079L9.40745 3.05115H9.91982L9.50546 3.35393L9.66117 3.8406L9.24928 3.54027L8.83492 3.8406L8.99062 3.35393L8.57626 3.05115H9.08871L9.24928 2.56079Z" fill="white"/>
</g>
<mask id="mask38_238_25505" style="mask-type:luminance" maskUnits="userSpaceOnUse" x="0" y="0" width="42" height="24">
<path d="M41.1449 0H0V24H41.1449V0Z" fill="white"/>
</mask>
<g mask="url(#mask38_238_25505)">
<path d="M9.24928 4.7196L9.40745 5.20628H9.91982L9.50546 5.50906L9.66117 5.99697L9.24928 5.69785L8.83492 5.99697L8.99062 5.50906L8.57626 5.20628H9.08871L9.24928 4.7196Z" fill="white"/>
</g>
<mask id="mask39_238_25505" style="mask-type:luminance" maskUnits="userSpaceOnUse" x="0" y="0" width="42" height="24">
<path d="M41.1449 0H0V24H41.1449V0Z" fill="white"/>
</mask>
<g mask="url(#mask39_238_25505)">
<path d="M9.24928 6.87708L9.40745 7.36496H9.91982L9.50546 7.66653L9.66117 8.15565L9.24928 7.85285L8.83492 8.15565L8.99062 7.66653L8.57626 7.36496H9.08871L9.24928 6.87708Z" fill="white"/>
</g>
<mask id="mask40_238_25505" style="mask-type:luminance" maskUnits="userSpaceOnUse" x="0" y="0" width="42" height="24">
<path d="M41.1449 0H0V24H41.1449V0Z" fill="white"/>
</mask>
<g mask="url(#mask40_238_25505)">
<path d="M9.24928 9.03467L9.40745 9.52256H9.91982L9.50546 9.82412L9.66117 10.3108L9.24928 10.008L8.83492 10.3108L8.99062 9.82412L8.57626 9.52256H9.08871L9.24928 9.03467Z" fill="white"/>
</g>
<mask id="mask41_238_25505" style="mask-type:luminance" maskUnits="userSpaceOnUse" x="0" y="0" width="42" height="24">
<path d="M41.1449 0H0V24H41.1449V0Z" fill="white"/>
</mask>
<g mask="url(#mask41_238_25505)">
<path d="M10.7665 1.42444L10.9271 1.9148H11.4395L11.0252 2.21636L11.1858 2.70425L10.7665 2.40269L10.3546 2.70425L10.5103 2.21636L10.0972 1.9148H10.6084L10.7665 1.42444Z" fill="white"/>
</g>
<mask id="mask42_238_25505" style="mask-type:luminance" maskUnits="userSpaceOnUse" x="0" y="0" width="42" height="24">
<path d="M41.1449 0H0V24H41.1449V0Z" fill="white"/>
</mask>
<g mask="url(#mask42_238_25505)">
<path d="M10.7665 3.58313L10.9271 4.07104H11.4395L11.0252 4.37137L11.1858 4.86171L10.7665 4.55893L10.3546 4.86171L10.5103 4.37137L10.0972 4.07104H10.6084L10.7665 3.58313Z" fill="white"/>
</g>
<mask id="mask43_238_25505" style="mask-type:luminance" maskUnits="userSpaceOnUse" x="0" y="0" width="42" height="24">
<path d="M41.1449 0H0V24H41.1449V0Z" fill="white"/>
</mask>
<g mask="url(#mask43_238_25505)">
<path d="M10.7665 5.74072L10.9271 6.2274H11.4395L11.0252 6.52894L11.1858 7.0193L10.7665 6.7165L10.3546 7.0193L10.5103 6.52894L10.0972 6.2274H10.6084L10.7665 5.74072Z" fill="white"/>
</g>
<mask id="mask44_238_25505" style="mask-type:luminance" maskUnits="userSpaceOnUse" x="0" y="0" width="42" height="24">
<path d="M41.1449 0H0V24H41.1449V0Z" fill="white"/>
</mask>
<g mask="url(#mask44_238_25505)">
<path d="M10.7665 7.89709L10.9271 8.3862H11.4395L11.0252 8.68777L11.1858 9.17567L10.7665 8.87532L10.3546 9.17567L10.5103 8.68777L10.0972 8.3862H10.6084L10.7665 7.89709Z" fill="white"/>
</g>
<mask id="mask45_238_25505" style="mask-type:luminance" maskUnits="userSpaceOnUse" x="0" y="0" width="42" height="24">
<path d="M41.1449 0H0V24H41.1449V0Z" fill="white"/>
</mask>
<g mask="url(#mask45_238_25505)">
<path d="M10.7665 10.0533L10.9271 10.5449H11.4395L11.0252 10.844L11.1858 11.3319L10.7665 11.0304L10.3546 11.3319L10.5103 10.844L10.0972 10.5449H10.6084L10.7665 10.0533Z" fill="white"/>
</g>
<mask id="mask46_238_25505" style="mask-type:luminance" maskUnits="userSpaceOnUse" x="0" y="0" width="42" height="24">
<path d="M41.1449 0H0V24H41.1449V0Z" fill="white"/>
</mask>
<g mask="url(#mask46_238_25505)">
<path d="M12.2709 2.56079L12.429 3.05115H12.9463L12.5295 3.35393L12.6876 3.8406L12.2709 3.54027L11.8565 3.8406L12.0171 3.35393L11.6003 3.05115H12.1152L12.2709 2.56079Z" fill="white"/>
</g>
<mask id="mask47_238_25505" style="mask-type:luminance" maskUnits="userSpaceOnUse" x="0" y="0" width="42" height="24">
<path d="M41.1449 0H0V24H41.1449V0Z" fill="white"/>
</mask>
<g mask="url(#mask47_238_25505)">
<path d="M12.2709 4.7196L12.429 5.20628H12.9463L12.5295 5.50906L12.6876 5.99697L12.2709 5.69785L11.8565 5.99697L12.0171 5.50906L11.6003 5.20628H12.1152L12.2709 4.7196Z" fill="white"/>
</g>
<mask id="mask48_238_25505" style="mask-type:luminance" maskUnits="userSpaceOnUse" x="0" y="0" width="42" height="24">
<path d="M41.1449 0H0V24H41.1449V0Z" fill="white"/>
</mask>
<g mask="url(#mask48_238_25505)">
<path d="M12.2709 6.87708L12.429 7.36496H12.9463L12.5295 7.66653L12.6876 8.15565L12.2709 7.85285L11.8565 8.15565L12.0171 7.66653L11.6003 7.36496H12.1152L12.2709 6.87708Z" fill="white"/>
</g>
<mask id="mask49_238_25505" style="mask-type:luminance" maskUnits="userSpaceOnUse" x="0" y="0" width="42" height="24">
<path d="M41.1449 0H0V24H41.1449V0Z" fill="white"/>
</mask>
<g mask="url(#mask49_238_25505)">
<path d="M12.2709 9.03467L12.429 9.52256H12.9463L12.5295 9.82412L12.6876 10.3108L12.2709 10.008L11.8565 10.3108L12.0171 9.82412L11.6003 9.52256H12.1152L12.2709 9.03467Z" fill="white"/>
</g>
<mask id="mask50_238_25505" style="mask-type:luminance" maskUnits="userSpaceOnUse" x="0" y="0" width="42" height="24">
<path d="M41.1449 0H0V24H41.1449V0Z" fill="white"/>
</mask>
<g mask="url(#mask50_238_25505)">
<path d="M13.7935 1.42444L13.9542 1.9148H14.4665L14.0522 2.21636L14.2079 2.70425L13.7935 2.40269L13.3816 2.70425L13.5373 2.21636L13.123 1.9148H13.6354L13.7935 1.42444Z" fill="white"/>
</g>
<mask id="mask51_238_25505" style="mask-type:luminance" maskUnits="userSpaceOnUse" x="0" y="0" width="42" height="24">
<path d="M41.1449 0H0V24H41.1449V0Z" fill="white"/>
</mask>
<g mask="url(#mask51_238_25505)">
<path d="M13.7935 3.58313L13.9542 4.07104H14.4665L14.0522 4.37137L14.2079 4.86171L13.7935 4.55893L13.3816 4.86171L13.5373 4.37137L13.123 4.07104H13.6354L13.7935 3.58313Z" fill="white"/>
</g>
<mask id="mask52_238_25505" style="mask-type:luminance" maskUnits="userSpaceOnUse" x="0" y="0" width="42" height="24">
<path d="M41.1449 0H0V24H41.1449V0Z" fill="white"/>
</mask>
<g mask="url(#mask52_238_25505)">
<path d="M13.7935 5.74072L13.9542 6.2274H14.4665L14.0522 6.52894L14.2079 7.0193L13.7935 6.7165L13.3816 7.0193L13.5373 6.52894L13.123 6.2274H13.6354L13.7935 5.74072Z" fill="white"/>
</g>
<mask id="mask53_238_25505" style="mask-type:luminance" maskUnits="userSpaceOnUse" x="0" y="0" width="42" height="24">
<path d="M41.1449 0H0V24H41.1449V0Z" fill="white"/>
</mask>
<g mask="url(#mask53_238_25505)">
<path d="M13.7935 7.89709L13.9542 8.3862H14.4665L14.0522 8.68777L14.2079 9.17567L13.7935 8.87532L13.3816 9.17567L13.5373 8.68777L13.123 8.3862H13.6354L13.7935 7.89709Z" fill="white"/>
</g>
<mask id="mask54_238_25505" style="mask-type:luminance" maskUnits="userSpaceOnUse" x="0" y="0" width="42" height="24">
<path d="M41.1449 0H0V24H41.1449V0Z" fill="white"/>
</mask>
<g mask="url(#mask54_238_25505)">
<path d="M13.7935 10.0533L13.9542 10.5449H14.4665L14.0522 10.844L14.2079 11.3319L13.7935 11.0304L13.3816 11.3319L13.5373 10.844L13.123 10.5449H13.6354L13.7935 10.0533Z" fill="white"/>
</g>
<mask id="mask55_238_25505" style="mask-type:luminance" maskUnits="userSpaceOnUse" x="0" y="0" width="42" height="24">
<path d="M41.1449 0H0V24H41.1449V0Z" fill="white"/>
</mask>
<g mask="url(#mask55_238_25505)">
<path d="M15.2977 2.56079L15.4534 3.05115H15.967L15.5564 3.35393L15.7096 3.8406L15.2977 3.54027L14.8784 3.8406L15.0391 3.35393L14.6272 3.05115H15.1371L15.2977 2.56079Z" fill="white"/>
</g>
<mask id="mask56_238_25505" style="mask-type:luminance" maskUnits="userSpaceOnUse" x="0" y="0" width="42" height="24">
<path d="M41.1449 0H0V24H41.1449V0Z" fill="white"/>
</mask>
<g mask="url(#mask56_238_25505)">
<path d="M15.2977 4.7196L15.4534 5.20628H15.967L15.5564 5.50906L15.7096 5.99697L15.2977 5.69785L14.8784 5.99697L15.0391 5.50906L14.6272 5.20628H15.1371L15.2977 4.7196Z" fill="white"/>
</g>
<mask id="mask57_238_25505" style="mask-type:luminance" maskUnits="userSpaceOnUse" x="0" y="0" width="42" height="24">
<path d="M41.1449 0H0V24H41.1449V0Z" fill="white"/>
</mask>
<g mask="url(#mask57_238_25505)">
<path d="M15.2977 6.87708L15.4534 7.36496H15.967L15.5564 7.66653L15.7096 8.15565L15.2977 7.85285L14.8784 8.15565L15.0391 7.66653L14.6272 7.36496H15.1371L15.2977 6.87708Z" fill="white"/>
</g>
<mask id="mask58_238_25505" style="mask-type:luminance" maskUnits="userSpaceOnUse" x="0" y="0" width="42" height="24">
<path d="M41.1449 0H0V24H41.1449V0Z" fill="white"/>
</mask>
<g mask="url(#mask58_238_25505)">
<path d="M15.2977 9.03467L15.4534 9.52256H15.967L15.5564 9.82412L15.7096 10.3108L15.2977 10.008L14.8784 10.3108L15.0391 9.82412L14.6272 9.52256H15.1371L15.2977 9.03467Z" fill="white"/>
</g>
<mask id="mask59_238_25505" style="mask-type:luminance" maskUnits="userSpaceOnUse" x="0" y="0" width="42" height="24">
<path d="M41.1449 0H0V24H41.1449V0Z" fill="white"/>
</mask>
<g mask="url(#mask59_238_25505)">
<path d="M16.8151 1.42444L16.9781 1.9148H17.4881L17.0738 2.21636L17.2343 2.70425L16.8151 2.40269L16.4032 2.70425L16.5589 2.21636L16.1446 1.9148H16.6569L16.8151 1.42444Z" fill="white"/>
</g>
<mask id="mask60_238_25505" style="mask-type:luminance" maskUnits="userSpaceOnUse" x="0" y="0" width="42" height="24">
<path d="M41.1449 0H0V24H41.1449V0Z" fill="white"/>
</mask>
<g mask="url(#mask60_238_25505)">
<path d="M16.8151 3.58313L16.9781 4.07104H17.4881L17.0738 4.37137L17.2343 4.86171L16.8151 4.55893L16.4032 4.86171L16.5589 4.37137L16.1446 4.07104H16.6569L16.8151 3.58313Z" fill="white"/>
</g>
<mask id="mask61_238_25505" style="mask-type:luminance" maskUnits="userSpaceOnUse" x="0" y="0" width="42" height="24">
<path d="M41.1449 0H0V24H41.1449V0Z" fill="white"/>
</mask>
<g mask="url(#mask61_238_25505)">
<path d="M16.8151 5.74072L16.9781 6.2274H17.4881L17.0738 6.52894L17.2343 7.0193L16.8151 6.7165L16.4032 7.0193L16.5589 6.52894L16.1446 6.2274H16.6569L16.8151 5.74072Z" fill="white"/>
</g>
<mask id="mask62_238_25505" style="mask-type:luminance" maskUnits="userSpaceOnUse" x="0" y="0" width="42" height="24">
<path d="M41.1449 0H0V24H41.1449V0Z" fill="white"/>
</mask>
<g mask="url(#mask62_238_25505)">
<path d="M16.8151 7.89709L16.9781 8.3862H17.4881L17.0738 8.68777L17.2343 9.17567L16.8151 8.87532L16.4032 9.17567L16.5589 8.68777L16.1446 8.3862H16.6569L16.8151 7.89709Z" fill="white"/>
</g>
<mask id="mask63_238_25505" style="mask-type:luminance" maskUnits="userSpaceOnUse" x="0" y="0" width="42" height="24">
<path d="M41.1449 0H0V24H41.1449V0Z" fill="white"/>
</mask>
<g mask="url(#mask63_238_25505)">
<path d="M16.8151 10.0533L16.9781 10.5449H17.4881L17.0738 10.844L17.2343 11.3319L16.8151 11.0304L16.4032 11.3319L16.5589 10.844L16.1446 10.5449H16.6569L16.8151 10.0533Z" fill="white"/>
</g>
</svg>
