<svg width="32" height="32" viewBox="0 0 32 32" fill="none" xmlns="http://www.w3.org/2000/svg">
<path opacity="0.2" d="M29 20.5C29 22.4325 27.2088 24 25 24C22.7913 24 21 22.4325 21 20.5C21 18.5675 22.7913 17 25 17C27.2088 17 29 18.5675 29 20.5ZM4.35254 19H15.6475L10 7L4.35254 19Z" fill="#333333"/>
<path d="M10.905 6.57373C10.8242 6.40194 10.6962 6.25668 10.536 6.15493C10.3757 6.05318 10.1898 5.99915 9.99997 5.99915C9.81014 5.99915 9.62423 6.05318 9.46397 6.15493C9.30371 6.25668 9.17572 6.40194 9.09497 6.57373L1.09497 23.5737C1.03907 23.6926 1.00714 23.8213 1.00098 23.9525C0.994819 24.0837 1.01456 24.2148 1.05907 24.3383C1.14898 24.5879 1.33432 24.7915 1.57434 24.9044C1.81436 25.0172 2.0894 25.0302 2.33894 24.9403C2.58848 24.8504 2.79209 24.665 2.90497 24.425L4.98747 20H15.0125L17.095 24.425C17.1509 24.5438 17.2296 24.6505 17.3267 24.7389C17.4239 24.8273 17.5374 24.8957 17.661 24.9403C17.7846 24.9848 17.9157 25.0045 18.0469 24.9983C18.1781 24.9922 18.3067 24.9603 18.4256 24.9044C18.5444 24.8485 18.6511 24.7697 18.7395 24.6726C18.8279 24.5755 18.8963 24.4619 18.9409 24.3383C18.9854 24.2148 19.0051 24.0837 18.999 23.9525C18.9928 23.8213 18.9609 23.6926 18.905 23.5737L10.905 6.57373ZM5.92872 18L9.99997 9.34873L14.0712 18H5.92872ZM25 12C23.405 12 22.1587 12.4337 21.2962 13.29C21.1156 13.4782 21.0158 13.7296 21.0179 13.9904C21.0201 14.2513 21.124 14.5009 21.3077 14.6862C21.4913 14.8715 21.74 14.9776 22.0008 14.9821C22.2617 14.9865 22.5139 14.8889 22.7037 14.71C23.1787 14.2387 23.9537 14 25 14C26.6537 14 28 15.125 28 16.5V16.9025C27.1126 16.3088 26.0677 15.9944 25 16C22.2425 16 20 18.0187 20 20.5C20 22.9812 22.2425 25 25 25C26.0681 25.0047 27.1131 24.689 28 24.0937C28.0124 24.359 28.1297 24.6084 28.326 24.7871C28.5223 24.9659 28.7816 25.0593 29.0468 25.0469C29.3121 25.0344 29.5615 24.9171 29.7402 24.7208C29.919 24.5245 30.0124 24.2652 30 24V16.5C30 14.0187 27.7575 12 25 12ZM25 23C23.3462 23 22 21.875 22 20.5C22 19.125 23.3462 18 25 18C26.6537 18 28 19.125 28 20.5C28 21.875 26.6537 23 25 23Z" fill="#333333"/>
</svg>
