<svg width="32" height="32" viewBox="0 0 32 32" fill="none" xmlns="http://www.w3.org/2000/svg">
<path opacity="0.2" d="M23.0163 18.4625C22.8793 18.5829 22.7774 18.7382 22.7215 18.9118C22.6656 19.0855 22.6577 19.271 22.6988 19.4488L24.3888 26.7663C24.4335 26.9574 24.4209 27.1574 24.3527 27.3415C24.2844 27.5255 24.1636 27.6854 24.0051 27.8012C23.8467 27.917 23.6576 27.9836 23.4616 27.9927C23.2655 28.0019 23.0711 27.9531 22.9026 27.8525L16.5151 23.9775C16.3599 23.8831 16.1817 23.8332 16.0001 23.8332C15.8184 23.8332 15.6403 23.8831 15.4851 23.9775L9.09756 27.8525C8.92902 27.9531 8.73461 28.0019 8.53856 27.9927C8.3425 27.9836 8.15346 27.917 7.99501 27.8012C7.83655 27.6854 7.71567 27.5255 7.64744 27.3415C7.57921 27.1574 7.56665 26.9574 7.61131 26.7663L9.30131 19.4488C9.34239 19.271 9.33456 19.0855 9.27866 18.9118C9.22275 18.7382 9.12086 18.5829 8.98381 18.4625L3.34506 13.5438C3.19431 13.4156 3.08495 13.2457 3.03083 13.0554C2.9767 12.8651 2.98024 12.663 3.04099 12.4747C3.10175 12.2864 3.21699 12.1204 3.37213 11.9976C3.52727 11.8749 3.71535 11.8009 3.91256 11.785L11.3451 11.1425C11.5264 11.1264 11.6999 11.061 11.8468 10.9535C11.9937 10.846 12.1085 10.7005 12.1788 10.5325L15.0826 3.61252C15.1601 3.43361 15.2883 3.28128 15.4513 3.17427C15.6143 3.06726 15.8051 3.01025 16.0001 3.01025C16.1951 3.01025 16.3858 3.06726 16.5488 3.17427C16.7118 3.28128 16.84 3.43361 16.9176 3.61252L19.8213 10.5325C19.8916 10.7005 20.0064 10.846 20.1533 10.9535C20.3002 11.061 20.4737 11.1264 20.6551 11.1425L28.0876 11.785C28.2848 11.8009 28.4728 11.8749 28.628 11.9976C28.7831 12.1204 28.8984 12.2864 28.9591 12.4747C29.0199 12.663 29.0234 12.8651 28.9693 13.0554C28.9152 13.2457 28.8058 13.4156 28.6551 13.5438L23.0163 18.4625Z" fill="#333333"/>
<path d="M29.8999 12.1612C29.7788 11.788 29.5506 11.4586 29.2436 11.2141C28.9367 10.9696 28.5646 10.8208 28.1737 10.7862L20.7499 10.1462L17.8399 3.22624C17.6884 2.86314 17.4329 2.55298 17.1054 2.33482C16.778 2.11665 16.3934 2.00024 15.9999 2.00024C15.6065 2.00024 15.2218 2.11665 14.8944 2.33482C14.567 2.55298 14.3114 2.86314 14.1599 3.22624L11.2587 10.1462L3.82618 10.79C3.43372 10.823 3.05974 10.9711 2.75113 11.2158C2.44251 11.4604 2.21301 11.7908 2.0914 12.1654C1.96978 12.54 1.96147 12.9421 2.0675 13.3214C2.17353 13.7007 2.38919 14.0403 2.68743 14.2975L8.32618 19.225L6.63618 26.5425C6.54682 26.9254 6.57232 27.3262 6.70949 27.6947C6.84666 28.0632 7.08943 28.3831 7.40742 28.6144C7.72542 28.8457 8.10455 28.9782 8.4974 28.9951C8.89025 29.0121 9.27939 28.913 9.61618 28.71L15.9912 24.835L22.3799 28.71C22.7167 28.913 23.1059 29.0121 23.4987 28.9951C23.8916 28.9782 24.2707 28.8457 24.5887 28.6144C24.9067 28.3831 25.1494 28.0632 25.2866 27.6947C25.4238 27.3262 25.4493 26.9254 25.3599 26.5425L23.6712 19.2175L29.3087 14.2975C29.6069 14.0394 29.8221 13.6989 29.9273 13.3188C30.0325 12.9387 30.023 12.5359 29.8999 12.1612ZM27.9974 12.7862L22.3599 17.7062C22.0856 17.9449 21.8814 18.2539 21.7696 18.5999C21.6577 18.9459 21.6422 19.3159 21.7249 19.67L23.4187 27L17.0349 23.125C16.7235 22.9353 16.3658 22.835 16.0012 22.835C15.6365 22.835 15.2789 22.9353 14.9674 23.125L8.59243 27L10.2749 19.675C10.3576 19.3209 10.3422 18.9509 10.2303 18.6049C10.1184 18.2589 9.9143 17.9499 9.63993 17.7112L3.99993 12.7937C3.99947 12.79 3.99947 12.7862 3.99993 12.7825L11.4299 12.14C11.7927 12.108 12.1398 11.9776 12.4339 11.7628C12.728 11.5481 12.9578 11.2571 13.0987 10.9212L15.9999 4.00999L18.8999 10.9212C19.0408 11.2571 19.2706 11.5481 19.5647 11.7628C19.8588 11.9776 20.2059 12.108 20.5687 12.14L27.9999 12.7825C27.9999 12.7825 27.9999 12.79 27.9999 12.7912L27.9974 12.7862Z" fill="#333333"/>
</svg>
