<svg width="24" height="24" viewBox="0 0 24 24" fill="none" xmlns="http://www.w3.org/2000/svg">
<path d="M13.7341 3.51014L15.4941 7.03014C15.7341 7.52014 16.3741 7.99014 16.9141 8.08014L20.1041 8.61014C22.1441 8.95014 22.6241 10.4301 21.1541 11.8901L18.6741 14.3701C18.2541 14.7901 18.0241 15.6001 18.1541 16.1801L18.8641 19.2501C19.4241 21.6801 18.1341 22.6201 15.9841 21.3501L12.9941 19.5801C12.4541 19.2601 11.5641 19.2601 11.0141 19.5801L8.02414 21.3501C5.88414 22.6201 4.58414 21.6701 5.14414 19.2501L5.85414 16.1801C5.98414 15.6001 5.75414 14.7901 5.33414 14.3701L2.85414 11.8901C1.39414 10.4301 1.86414 8.95014 3.90414 8.61014L7.09414 8.08014C7.62414 7.99014 8.26414 7.52014 8.50414 7.03014L10.2641 3.51014C11.2241 1.60014 12.7841 1.60014 13.7341 3.51014Z" stroke="#263038" stroke-width="1.5" stroke-linecap="round" stroke-linejoin="round"/>
</svg>
